<?xml version="1.0" standalone="no"?>
<!DOCTYPE svg PUBLIC "-//W3C//DTD SVG 1.1//EN" "http://www.w3.org/Graphics/SVG/1.1/DTD/svg11.dtd" >
<svg xmlns="http://www.w3.org/2000/svg">
<metadata></metadata>
<defs>
<font id="alpha_echo_testgelaendeRg" horiz-adv-x="1139" >
<font-face units-per-em="2048" ascent="1638" descent="-410" />
<missing-glyph horiz-adv-x="569" />
<glyph unicode="&#xfb01;" horiz-adv-x="1024" />
<glyph unicode="&#xfb02;" horiz-adv-x="1024" />
<glyph horiz-adv-x="2048" />
<glyph horiz-adv-x="2048" />
<glyph unicode="&#xd;" horiz-adv-x="569" />
<glyph unicode=" "  horiz-adv-x="569" />
<glyph unicode="&#x09;" horiz-adv-x="569" />
<glyph unicode="&#xa0;" horiz-adv-x="569" />
<glyph unicode="!" horiz-adv-x="598" d="M90 45l14 -51q79 -35 159 -52l157 65q60 51 87 115l-15 168q-73 55 -158 77l-201 -26q-21 -82 -29 -168zM90 1352l29 -244v-48l29 -49l-29 -272l45 -136l48 -119q86 17 161 -10l55 181l64 243l-14 65l14 259q-27 145 -115 226zM277 1173q31 -9 43 -33q-31 10 -43 33z M292 930h13v-32z" />
<glyph unicode="&#x22;" horiz-adv-x="700" d="M90 1184q6 -87 22 -154l11 -22l33 -11l100 11q39 63 55 121l-11 177l11 33l11 22q-3 47 -11 88l-166 22q-34 -57 -44 -110l-11 -22v-155zM366 1174l33 -144l22 -33l121 22q42 70 55 132l-10 155l21 33l12 33l-23 67q-76 27 -154 32q-47 -54 -66 -121q-2 -108 -11 -176z " />
<glyph unicode="#" />
<glyph unicode="$" horiz-adv-x="1288" d="M80 346q18 -74 58 -145l116 -129l254 -82l23 -139l127 4l29 73l58 72h115l159 72l116 129q47 84 72 174l-29 217l-116 129l-332 145l-14 43l29 144l173 -57q110 14 203 43l29 44l-59 115q-63 66 -129 115l-235 63l-3 82l-161 -4l-13 -89q-178 -31 -253 -66 q-65 -60 -116 -130l-72 -173l57 -173q46 -90 102 -145q82 -46 174 -72q75 -55 129 -116q-19 -96 -57 -173l-102 130q-94 -6 -173 -29h-29l-29 15l-72 -15zM354 967q24 -14 29 -29q-24 11 -29 29zM369 230v30l29 -15zM383 809l15 57q34 -12 44 -43zM456 1039l72 44 q38 -51 58 -102q-27 -30 -58 -43q-46 49 -72 101zM514 721l28 -14l-14 -29zM528 129q26 -9 29 -28q-23 14 -29 28zM528 837q24 -14 29 -43zM586 1256h14v-29zM629 216q26 -11 29 -29q-25 11 -29 29zM673 707q25 -10 29 -29q-24 10 -29 29zM687 173q23 -15 29 -44 q-23 17 -29 44zM702 289l57 216l87 -87l-58 -129l-14 -15zM745 549h14v-30zM774 592q25 -10 28 -29q-24 10 -28 29zM831 1198q26 -9 29 -29q-24 11 -29 29zM962 592l28 -43q-23 14 -28 43zM1019 346q26 -9 29 -29q-25 11 -29 29z" />
<glyph unicode="%" horiz-adv-x="1821" />
<glyph unicode="&#x26;" horiz-adv-x="1571" d="M76 439l14 -130l72 -130l116 -101q80 -38 159 -57l173 -15l202 15l317 100l129 -85q81 13 145 56l101 116q-29 67 -72 116l-58 14v130l44 115l-29 43q-89 40 -159 58q-75 -19 -144 -58q-82 28 -144 72q14 71 57 116q66 55 115 115l58 144l-72 145l-101 130l-158 57 l-116 -29l-43 15l-188 -29q-72 -37 -129 -86q-59 -76 -87 -145l-15 -43l29 -116q42 -74 87 -129q-44 -65 -101 -115l-116 -102q-44 -74 -72 -144zM234 324l15 57l29 -14zM292 468v28l30 -14zM350 252l29 -16l-14 -28zM408 669q37 -25 43 -57q-37 21 -43 57zM480 352 q18 122 72 216q115 -57 187 -129q45 -62 59 -130l-88 -43q-128 24 -230 86zM480 1059h14v-43zM523 728q7 50 29 86q-2 -56 -29 -86zM638 1016q18 91 58 159q80 -20 145 -59q-21 -75 -59 -144q-81 9 -144 44zM754 626l58 43l29 -72zM913 540h14v-29zM927 381l43 115l58 -86 l-29 -43zM1014 309q13 31 43 43q55 -34 115 -43l14 72l58 -129q-63 1 -130 28z" />
<glyph unicode="'" horiz-adv-x="391" d="M90 1184q6 -87 22 -154l11 -22l33 -11l100 11q39 63 55 121l-11 177l11 33l11 22q-3 47 -11 88l-166 22q-34 -57 -44 -110l-11 -22v-155z" />
<glyph unicode="(" horiz-adv-x="675" d="M81 659l13 -26v-126l25 -38q25 -122 64 -215q51 -106 113 -177q48 -103 139 -152q83 5 140 26l-102 277q-13 128 -63 228l13 241l12 12l-12 26l-13 37l13 165l63 215q30 114 89 203q-63 112 -177 113q-139 -143 -203 -341l-76 -190l-25 -228v-38zM220 507l13 -12v-52z M271 380l38 -25q-27 7 -38 25zM296 1013q28 -8 38 -26q-27 5 -38 26z" />
<glyph unicode=")" horiz-adv-x="683" d="M94 1403l38 -89q52 -121 77 -218l13 -38l13 -26l13 -333l12 -26l-12 -64q-8 -135 -39 -243q-16 -124 -64 -218q-21 -111 -25 -203q48 -35 102 -52l90 52l103 178q62 102 89 192q51 103 64 204v39l13 128l-13 52q-3 130 -51 230q-16 126 -64 218q-47 112 -102 192 q-77 80 -180 102q-51 -44 -77 -77zM364 647l51 -38q-36 6 -51 38zM376 955q23 -8 26 -25q-22 14 -26 25zM389 391q22 -12 26 -25q-23 9 -26 25zM389 917l26 -38q-21 12 -26 38zM402 789l26 -13l-13 -38z" />
<glyph unicode="*" horiz-adv-x="841" d="M57 1173l45 -45l136 -75l-75 -136q34 -76 89 -120q80 37 136 90q58 0 105 -45l45 -30l105 45l45 30l-29 120q38 77 104 121l31 45l-45 106l-30 29l-120 -14q-50 33 -61 89q-58 77 -135 106q-48 -65 -60 -135l-16 -91l-75 31l-45 29q-67 -10 -120 -29zM508 1113 q32 -9 45 -30q-29 7 -45 30z" />
<glyph unicode="+" horiz-adv-x="1196" />
<glyph unicode="," horiz-adv-x="501" d="M98 146l12 -377q25 -48 59 -84l106 24l94 -12l47 107v36l-23 176q10 118 35 225q-82 79 -188 82q-97 -42 -130 -130q-3 -31 -12 -47zM228 182l47 -36q-30 4 -47 36zM252 -55l35 -58q-30 22 -35 58z" />
<glyph unicode="-" horiz-adv-x="865" d="M94 794q4 -97 50 -164q136 -25 242 -26l89 13l89 -13l37 13q114 13 178 89q-5 117 -63 202l-102 13h-152v-13h-241q-92 -33 -127 -114z" />
<glyph unicode="." horiz-adv-x="598" d="M86 253l30 -210q79 -61 164 -90l46 16l30 15l89 -15q51 87 60 179l15 60l-15 165q-67 61 -149 90l-165 -76q-67 -63 -105 -134zM311 193h15v-30z" />
<glyph unicode="/" horiz-adv-x="742" d="M85 74q5 -94 49 -162q99 22 179 82l82 211l129 717l82 195l49 244q-34 109 -131 130q-78 -76 -129 -146l-33 -228l-66 -179z" />
<glyph unicode="0" horiz-adv-x="1301" d="M85 621q38 -129 43 -243q52 -125 115 -215q104 -83 215 -115l85 -43l158 29q51 -23 101 -29l143 58q97 80 158 172q47 124 71 243q6 158 29 286l-58 258q-35 129 -100 229q-109 81 -201 129l-286 15l-243 -86q-92 -82 -144 -172q-48 -133 -57 -244zM214 707 q57 -41 86 -100zM271 807l15 72q28 -34 29 -72h-44zM300 1094l57 -43q-42 7 -57 43zM357 277l29 43l43 -29l-58 -43zM443 563l57 158l-28 101l28 114l-14 43q75 117 201 144q87 -90 115 -201l13 -272q0 -146 -28 -259q-83 -96 -186 -114l-129 201zM873 1208q24 -14 29 -29 q-26 11 -29 29zM887 277q26 -11 29 -29q-25 10 -29 29zM887 750h15v-29zM916 1108l43 -14l-14 -58q-24 31 -29 72zM959 936q35 -28 43 -72q-37 31 -43 72zM973 507l14 114l15 -14l29 14l14 -58l-29 -28z" />
<glyph unicode="1" horiz-adv-x="1000" d="M85 795l58 -73q131 14 220 73q60 28 116 29l15 -29l-15 -102q29 -154 29 -263l-14 -277q13 -145 145 -146l103 -15l146 73l-15 58q8 91 30 161l-15 248l15 44v248q-25 150 -30 263l30 29v88l14 44l-29 102q-136 38 -249 44q-93 -74 -160 -146q-85 -85 -175 -146 q-132 -44 -205 -132zM421 999h14v-43zM552 926v88l44 -15q-14 -43 -44 -73zM581 1116l15 58q27 -25 29 -58h-44zM639 824q86 -54 103 -146q-26 -152 -29 -263v-14h-30l-14 29l14 44l-14 146l29 146q-45 25 -59 58zM655 926l14 -14v-58zM683 240l30 -43q-26 15 -30 43z M683 1073l30 101l29 -28l-15 -103q-30 9 -44 30z" />
<glyph unicode="2" horiz-adv-x="1252" d="M70 103l57 -72h185l43 -14l113 14l200 -14l199 14l57 15l156 -15q80 75 85 171q-28 90 -85 157l-228 -15q-95 5 -142 71l142 100l256 228l57 199l-29 185q-111 154 -256 227l-227 29v-15h-228l-156 -85q-61 -70 -100 -142q-48 -75 -70 -157q83 -55 170 -71q96 7 185 43 q58 68 114 114l43 28q70 -1 128 -28l13 -43l15 -28l-15 -114l-128 -114q-55 -70 -128 -114l-141 -99l-128 -128l-86 -143q-47 -96 -71 -184zM297 1084l43 71l15 -85zM340 1183q25 -9 28 -28q-19 12 -28 28zM468 373q7 68 28 128l57 -100l-28 -42zM511 302q52 -45 85 -100 q-57 40 -85 100zM596 1297h15v-28zM796 1198q24 -16 28 -43q-24 16 -28 43zM867 1127h13v-29zM880 842q90 26 100 100q32 -43 43 -100q-60 -33 -114 -43q-29 11 -29 43z" />
<glyph unicode="3" horiz-adv-x="1263" d="M85 370q40 -93 100 -158q60 -74 130 -129l272 -86l301 58q87 47 158 100q53 67 100 143l29 57l-15 158q-34 85 -85 144l-87 158l87 172l28 143l-28 57l-116 129l-186 87l-43 -29l-158 14l-229 -29l-158 -100l-100 -158q69 -62 158 -100l128 -43l58 29q56 91 86 172 l158 -29l57 -100l-28 -58q-74 -66 -144 -114q-52 -68 -71 -144q68 -86 172 -100q72 -56 114 -130l-29 -186q-98 -31 -186 -43l-100 144q-93 40 -187 43q-103 -27 -186 -72zM802 728l29 72q-3 -38 -29 -72zM816 900l58 43q25 -9 29 -28l-58 -57zM816 1245h15v-43zM888 628 q86 -71 86 -172q-77 71 -86 172z" />
<glyph unicode="4" horiz-adv-x="1372" d="M85 484q13 -154 88 -264q171 29 322 30q161 -2 278 -30l14 -43l-14 -146l73 -30q153 14 264 58v44l14 30l-14 102l58 29l30 -14l102 44l15 44l-15 146q-116 75 -176 161l-14 58l14 44v220l15 44l-29 117q5 74 14 117l-29 132l-190 14q-139 -40 -220 -132l-307 -380 q-216 -169 -293 -395zM261 469q65 -35 87 -87q-52 45 -87 87zM319 513l44 74q0 -45 -44 -74zM495 587q29 68 73 116l161 176l44 -15l-14 -161l14 -58l-30 -102l-160 28l-29 -14zM715 440l72 -44q-50 5 -72 44zM743 1011l74 117l88 -44l-74 -102l-14 44zM890 952 q29 -34 29 -73q-25 34 -29 73zM919 659q51 -53 73 -102q-50 49 -73 102zM919 806q33 -12 44 -44q-30 14 -44 44zM919 850h15v-29zM934 220h15v-29zM934 1187h15v-44zM949 1201v30l29 -16zM1051 484q37 -28 44 -58q-30 26 -44 58z" />
<glyph unicode="5" horiz-adv-x="1258" d="M85 371l28 -141q68 -76 142 -128l184 -71l44 14l184 -14l56 -14l156 42l143 114q106 192 141 383l-71 185l-141 127q-100 54 -199 71q-116 -13 -213 -42l-43 57q16 67 43 113l227 -28l43 14l156 -14q91 65 114 156q-10 99 -57 170l-43 14l-199 -14l-42 -28l-383 42 l-156 -99l-57 -213l-15 -212l-42 -128l28 -57q95 -59 199 -71q98 30 184 85l185 -29q55 -99 85 -184q-19 -110 -85 -170l-128 -29l-57 43q-70 69 -141 113l-213 -13zM312 798q35 -25 43 -57q-35 21 -43 57zM327 1195l56 -43q-38 5 -56 43zM340 883h43l-14 -85zM369 939 q29 -7 42 -28q-32 2 -42 28zM837 655l29 72q53 -66 70 -142q-56 46 -99 70zM908 244q25 -9 28 -29q-21 14 -28 29zM965 457l28 71q26 -9 29 -29z" />
<glyph unicode="6" horiz-adv-x="1296" d="M85 796l29 -188q2 -102 14 -174q24 -98 59 -173q58 -50 100 -116l131 -87l159 -58l43 15l116 -15l188 30l145 86l73 145q45 62 57 130l15 188l-58 145q-59 71 -116 115q-78 49 -145 73l-130 14l-43 -28q-96 -16 -174 -44q-25 10 -29 29l-14 87l14 28l87 131l44 29 l101 -44l116 -101l202 15q75 54 102 130l-116 101q-57 63 -116 102l-44 14l-144 -14l-188 43l-290 -145l-86 -130q-39 -85 -59 -159zM259 680l14 73l73 -15zM273 449l14 72l44 -29q-14 -43 -44 -72zM273 839l14 73q68 -21 102 -73h-116zM316 637l59 -43q-40 10 -59 43z M505 506l29 102l130 72l144 -43l30 -29l-30 -275q-61 -50 -129 -58q-72 19 -116 72q-31 58 -44 116zM997 506l43 59l43 -15l-28 -72z" />
<glyph unicode="7" horiz-adv-x="1288" d="M85 1203l43 -143l43 -29q65 4 115 15l157 -15h44l28 -14l86 14q51 -12 86 -57l-72 -100l-244 -488l-13 -172l-29 -101l14 -42q60 -40 129 -58l172 14q78 136 100 259l72 301l58 114q26 67 71 115l72 115q44 52 72 100l100 57l14 43l-14 144q-41 58 -100 86l-172 14 l-43 -14l-101 14l-42 -14l-116 14l-114 -14l-43 14h-187q-139 -52 -186 -172zM415 1247h14v-29zM544 300l43 100q23 -13 28 -29l-28 -85zM630 543l14 44l29 -15l-14 -43zM744 1160v29l29 -14zM831 1247q47 -24 72 -58q-47 13 -72 58z" />
<glyph unicode="8" horiz-adv-x="1271" d="M85 426l28 -169l183 -169q147 -58 282 -70l113 -14l169 42q131 54 225 127q72 140 85 267q-47 145 -113 240q-43 63 -56 126l84 71l57 127l-57 113q-56 113 -141 197q-149 57 -281 84q-146 -41 -268 -42q-130 -66 -197 -155q-49 -74 -85 -155l28 -84q52 -137 113 -240 q-99 -94 -155 -184zM283 356v141q27 -63 41 -127zM367 623q3 40 28 71q23 -14 28 -43zM451 778h85l-42 -56zM465 538l99 72q134 -12 211 -113q-3 -143 -84 -240q-142 27 -212 127zM465 1018q75 86 170 127q93 -62 112 -155q-51 -101 -155 -113q-95 49 -127 141zM747 764 q12 43 43 70l28 -28l-15 -56zM874 694l14 28l28 -14l-14 -28zM874 1032l28 -57q-27 28 -28 57zM888 595q51 -39 71 -98q-51 41 -71 98zM931 356q30 -8 41 -29q-29 9 -41 29z" />
<glyph unicode="9" horiz-adv-x="1301" d="M81 909q16 -94 43 -172q38 -72 87 -130q68 -63 129 -101l172 -29l173 15l58 43v14h43l-15 -43l15 -43l-29 -129q-75 -45 -144 -57q-81 36 -130 85l-43 15l-143 -15q-95 -14 -173 -42q18 -75 58 -130l101 -115l157 -58l202 -14l187 29l143 72l115 101l116 316l-15 201 l15 173l-58 158q-35 73 -72 129q-55 66 -115 115l-143 72l-188 29l-187 -29l-100 -100q-69 -13 -129 -58q-65 -59 -101 -130zM283 1053l43 57l29 -43zM455 895q9 69 28 115l87 129q105 -11 173 -29q36 -73 57 -143l-14 -43q5 -72 14 -115l-201 -116l-44 44l-86 115zM872 722 l43 -14l115 14l-43 -115zM915 334l14 28h29l-15 -42zM1001 521l14 43l29 -15l-14 -28h-29z" />
<glyph unicode=":" horiz-adv-x="531" d="M86 940l36 -155q55 -46 118 -59l155 12q20 90 23 154v36l12 83l-12 35q-60 52 -130 71l-119 -71q-58 -51 -83 -106zM98 240l24 -166q53 -50 118 -71l155 24q32 79 47 142l-24 166q-57 51 -118 71l-119 -71q-53 -41 -83 -95z" />
<glyph unicode=";" horiz-adv-x="514" d="M85 923l24 -168l48 -60l84 12q80 5 143 24q26 83 36 156l12 36l-24 119q-70 46 -144 60l-119 -72q-42 -46 -60 -107zM97 192q0 -106 12 -192v-35l-12 -180q41 -95 132 -108q105 12 179 60l12 36l-24 287l24 108q-3 128 -120 143q-108 -24 -191 -72zM205 -59l24 36l12 131 h47l-24 -72l-11 -119zM229 875v24l47 -12q-17 -9 -47 -12z" />
<glyph unicode="&#x3c;" horiz-adv-x="1196" />
<glyph unicode="=" horiz-adv-x="1196" />
<glyph unicode="&#x3e;" horiz-adv-x="1196" />
<glyph unicode="?" horiz-adv-x="1178" d="M85 986l114 -71l128 -14l112 57q76 99 185 127l71 -56l-56 -114q-77 -87 -156 -156l-114 -198l57 -100h28l29 -14l13 14h57q128 8 199 85l156 156q73 83 128 185l28 28l28 157l-13 57q-77 91 -156 156q-114 77 -228 99l-269 14l-185 -128l-128 -185q-22 -47 -28 -99z M340 1171q26 -11 29 -29q-24 11 -29 29zM365 59q64 -47 142 -71l184 28q48 74 71 142l-43 156l-28 29q-69 -2 -113 -14l-156 28q-36 -75 -43 -142zM681 702q31 -7 42 -28zM809 1129q31 -31 42 -72q-33 27 -42 72zM879 944l29 -57q-26 26 -29 57z" />
<glyph unicode="@" horiz-adv-x="2079" />
<glyph unicode="A" horiz-adv-x="1154" d="M-79 141q41 -62 86 -100l157 -29l143 43l72 115q38 63 100 85h187l29 -13l56 28l29 -15q3 -75 34 -150q48 -51 100 -71l43 -14v14h129l114 71l24 50l-29 100l-56 130q-34 73 -44 143l-72 114l-42 144l-58 114l-71 258q-26 74 -57 129l-115 71q-84 25 -172 29l-129 -43 q-47 -62 -72 -129l-56 -114l-129 -415l-72 -130l-15 -158zM122 213l28 42q25 -9 29 -28zM265 671l57 -43q-38 12 -57 43zM279 814q72 -40 115 -100q-78 34 -115 100zM379 1130l72 -58q-49 19 -72 58zM423 485q24 -16 28 -43q-25 16 -28 43zM436 929l29 114q29 -56 29 -114 h-58zM494 570l14 101q38 121 43 229q53 -87 86 -172l29 -129q-13 -30 -43 -43zM494 1201l57 14l28 -43l-28 -28q-41 26 -57 57zM666 1130h85l-56 -29q-26 9 -29 29zM737 442q62 -65 86 -144zM795 528v71h57zM795 843q33 -14 43 -43q-30 18 -43 43zM866 742l14 44h15v-44h-29 zM880 642q26 -9 29 -28q-25 11 -29 28zM938 270q25 -10 29 -28q-25 9 -29 28zM967 370q25 -9 28 -28q-23 14 -28 28z" />
<glyph unicode="B" horiz-adv-x="1313" d="M77 202q59 -130 189 -174v14h43l44 -14l392 14l29 -14l101 14q151 51 248 116q83 122 116 248q-26 138 -73 247l-102 130l116 87l-14 131q-8 147 -87 247q-122 83 -247 102l-682 14l-73 -58l29 -494l-15 -159l15 -146zM237 1074h29l-15 -44zM251 362v58l73 -29zM251 914 q53 -11 88 -44q-47 6 -88 44zM266 217l14 58q15 -4 44 -29l-15 -58q-14 5 -43 29zM266 1102v44l43 -14zM309 536q25 -13 30 -29q-27 11 -30 29zM324 1190h15v-29zM367 769l102 -102l-87 -29zM382 1088v58l44 -14zM469 580l102 -30l160 30l101 -44l-29 -130 q-166 -37 -290 -44q-44 114 -44 218zM469 914l29 145l44 -29h73l43 -15l73 15l87 -44l-59 -101q-122 -7 -232 -29h-44zM745 667l29 58q46 -22 58 -72zM905 347l130 30q-20 -47 -72 -59zM905 1059q51 -35 58 -87zM963 566q0 43 28 72q24 -15 30 -44zM991 493h44l-14 -44 q-28 13 -30 44z" />
<glyph unicode="C" horiz-adv-x="1292" d="M93 593l28 -196l196 -267l154 -70l140 -28l57 14l42 -14l154 14l140 84l127 112q54 75 84 140q-53 77 -112 127q-81 34 -155 41l-112 -112q-84 -44 -168 -56l-141 84l-56 168v43l-13 42l13 112q43 71 99 126l154 70l126 -98q69 -55 141 -84q77 34 140 84q53 69 69 141 l-112 125q-52 61 -112 112l-182 43q-96 22 -183 28l-168 -56l-140 -84l-112 -112l-70 -155l-14 -42l-14 -28l14 -112zM233 747l14 42h14v-42h-28zM261 705l56 -28q-31 4 -56 28zM275 565l14 56h14v-56h-28zM289 929l28 98q31 -7 42 -28q-17 -58 -42 -98q-28 6 -28 28z M317 509q54 -31 57 -84q-44 33 -57 84zM387 242q40 38 84 56q-35 -37 -84 -56zM555 1223l43 43q-3 -39 -43 -43zM570 1126l28 -43q-26 13 -28 43zM611 242v28l28 -14zM752 242l126 70q37 -19 42 -56q-68 -21 -112 -56q-37 14 -56 42zM794 1182h42l-14 -56q-23 23 -28 56z M878 1083l28 84l29 -41z" />
<glyph unicode="D" horiz-adv-x="1385" d="M93 86l80 -22l110 -30l463 23q149 15 267 74q109 66 178 163q66 130 89 252l15 45v104l15 29l-15 104q-22 141 -74 252q-84 106 -163 179q-125 75 -238 104l-59 14l-253 -14l-305 -19q-101 -69 -110 -189l15 -59l-15 -252l30 -134l-30 -60l15 -74v-119l15 -45zM227 1096 h14v-30zM241 176v73l60 -14q-28 -40 -60 -59zM256 903h15v-30zM315 1200l30 29l45 -15l-30 -44zM331 561v59l44 -14zM331 724q26 -9 29 -29q-24 15 -29 29zM345 353l60 -44q-37 12 -60 44zM375 977h15v-30zM508 502l15 326l-15 45l15 122q41 4 79 4q87 0 159 -22 q96 -53 134 -149l14 -44l-14 -193l-104 -179l-179 -59q-93 57 -104 149zM538 1155l15 59l45 -14zM583 235q25 -15 29 -45q-24 16 -29 45zM746 1170q51 -23 74 -60q-51 19 -74 60zM835 280q32 -9 44 -31zM895 398h14v-30zM924 1110q35 -38 44 -89q-38 40 -44 89zM1028 1007 q35 -79 44 -149q-37 76 -44 149zM1043 532l59 -45q-40 9 -59 45zM1043 799h15v-45zM1058 561l14 75l45 -16q-13 -42 -45 -74z" />
<glyph unicode="E" horiz-adv-x="1199" d="M81 295l14 -160q66 -80 146 -116l203 30q102 1 204 28l218 -28l44 -15l159 15q47 95 58 188l-28 160l-44 29l-407 -29q-92 7 -174 44q8 103 72 174l204 -58l217 14q48 77 73 160l15 117l-73 57l-43 16l-436 -30l-44 146l436 -15l29 -14l102 14l43 73l15 43l-15 160 q-73 56 -159 73l-44 -14l-189 14l-218 -14l-232 28q-74 -52 -117 -116l-15 -247l15 -204l-15 -247v-87l15 -29l-15 -116zM212 426q48 -20 58 -58q-45 21 -58 58zM241 818l29 -14l-15 -29zM255 222q34 -12 44 -43zM255 571q29 -27 29 -58q-27 26 -29 58zM270 862l44 -14 l-15 -15q-25 11 -29 29zM299 513h15v-29zM299 978l44 87q-8 -54 -44 -87zM328 761l29 -15l-14 -29zM371 382q27 -9 30 -29q-25 10 -30 29zM387 237l57 72q-2 -65 -29 -116zM604 252l73 -30l-58 -29zM735 1254q47 -33 72 -72q-53 27 -72 72zM750 208l43 58q-6 -42 -43 -58z " />
<glyph unicode="F" horiz-adv-x="1182" d="M85 197q18 -73 57 -129q86 -38 157 -42l156 14l58 28l-14 115l14 43l-14 128q-1 66 -15 114l15 43q14 23 42 29l286 -44l184 29l44 157l-44 171l-199 15l-285 -29l-43 14l-14 115l29 42l42 14l114 -28l200 -14l185 14q52 67 71 143q-7 92 -28 171l-157 28l-185 -14 l-186 28v-14h-42l-29 -14l-271 43l-99 -100l-29 -43l14 -128l15 -43l-15 -129l15 -199l-15 -157l15 -185zM271 254l13 29h15v-29h-28zM271 1053q90 -13 128 -85q-88 7 -128 85zM271 1153q31 -7 42 -29q-30 7 -42 29zM284 896l58 -14l-29 -58q-27 22 -29 72zM313 368 q24 -14 29 -28q-25 10 -29 28zM327 511q32 -8 43 -28zM399 711l28 42l14 -57zM413 1210q31 -7 42 -29zM599 725q22 -25 28 -57zM712 1110v71l43 -14zM783 711q34 -12 44 -43q-32 12 -44 43zM869 696q30 -7 43 -28z" />
<glyph unicode="G" horiz-adv-x="1377" d="M78 585l14 -187l115 -171q90 -64 157 -129l257 -71l200 14l158 115q66 -98 171 -100q119 20 129 128v501q-1 134 -129 142l-42 -14l-344 28l-72 -71l-13 -43l42 -186l29 -43q98 2 171 15q-34 -70 -85 -115l-57 -28l-158 15q-77 81 -129 156l-28 229q35 100 86 186 q117 45 229 57q97 -48 171 -100l43 -28l171 42q85 56 115 143q-79 89 -158 143q-86 80 -157 128l-243 44l-214 -57q-124 -25 -200 -100l-143 -129l-86 -200l14 -43v-229zM249 785h15v-44zM264 570l14 115q23 -82 29 -144zM321 513q37 -21 43 -57q-35 25 -43 57zM336 727h14 v-28zM364 341l72 -28l-58 -28zM492 241q26 -9 29 -28q-25 11 -29 28zM521 1085q26 -11 29 -29q-23 14 -29 29zM550 227l42 -43q-32 14 -42 43zM679 156q5 39 28 71q25 -10 29 -29zM692 1156l15 72l57 -43l-57 -44zM879 1156q46 -11 71 -43zM936 285h14v-29zM1007 385l57 156 q36 -7 57 -28l-57 -28l29 -100h-86zM1050 641l14 29l72 -14l-57 -43zM1093 213l15 43h13v-43h-28z" />
<glyph unicode="H" horiz-adv-x="1301" d="M73 163q46 -100 143 -129l215 29l56 71l-42 343q56 93 157 101l43 -14l186 14l57 14l-57 -115l-14 -200q1 -128 57 -214q112 -23 214 -29q101 53 129 143l-14 171l14 44l-14 186l14 42l-14 444l28 215q-70 85 -172 100l-214 -43l-42 -28l14 -129q6 -108 28 -201l-14 -86 q-65 4 -115 15q-108 -13 -214 -43l-15 -15l-42 15l29 128l13 201q-21 113 -100 171l-200 -14q-99 -57 -114 -157q24 -98 58 -186q-33 -89 -44 -186l-14 -215l14 -42l-14 -187l14 -57zM202 392q54 -41 71 -86l-57 -14zM231 692l85 43l-14 129q38 -53 57 -100l-72 -86 q-35 3 -56 14zM273 420q26 -9 29 -28q-25 11 -29 28zM402 649q24 -14 29 -29q-26 11 -29 29zM487 778h15v-29zM516 720q25 -14 29 -28q-25 11 -29 28zM817 807l28 -15l58 29q-5 -74 -44 -129q-32 53 -42 115zM917 564q25 -10 28 -29q-22 13 -28 29zM931 363l28 57 q42 -20 72 -57h-100zM931 1221l43 -28q-30 7 -43 28zM959 1007l58 57q-15 -50 -58 -57zM1003 849l56 -42q-37 12 -56 42zM1046 535q31 -7 42 -29q-30 9 -42 29zM1046 1107h28l-15 -57z" />
<glyph unicode="I" horiz-adv-x="598" d="M81 367l30 -44l-16 -102l16 -132q93 -55 190 -73q109 4 190 58l29 44l-29 161l15 15h-15v29l15 103l-30 88l30 395l-30 58l30 132l-15 220q-91 44 -190 73l-190 -58l-16 -44l30 -367l-14 -43l14 -190l-14 -205q-4 -65 -30 -118zM242 221l15 73l44 -15l-15 -73zM242 499 l59 -29q-38 0 -59 29zM271 1114q32 -8 44 -29q-32 2 -44 29zM301 558h14v-30zM301 1231h43l-14 -44zM315 1173h15v-44z" />
<glyph unicode="J" horiz-adv-x="801" d="M68 303l14 -103q2 -108 74 -175l58 -15l162 15q121 21 219 59l103 175l-15 264l30 58l-15 147l15 44l-15 204l15 235q-31 109 -118 161l-219 15q-66 -87 -74 -176l-14 -44l29 -191l-15 -87l30 -396l-15 -88h-175l-60 -58zM361 274q42 -32 59 -88q-39 35 -59 88zM434 772 l44 73q24 -15 30 -44zM449 274q24 67 103 73l14 -15l-14 -73zM478 1020q60 -44 103 -102q-62 46 -103 102zM522 684q24 -15 30 -44q-24 15 -30 44zM537 537q29 -34 29 -73q-27 32 -29 73z" />
<glyph unicode="K" horiz-adv-x="1372" d="M85 202l14 -102l102 -57l145 -15l57 15q74 76 116 159l-58 188l116 144q31 37 73 44l115 -304l102 -159q99 -68 202 -72q133 3 232 43l29 72l-188 260q-34 83 -87 145q-53 97 -87 188q-65 63 -101 131l173 101l131 145l144 115q-44 106 -144 116l-217 -14 q-106 -29 -189 -87l-231 -319q-27 -42 -73 -57v87l44 231q-43 96 -102 159l-246 15l-72 -72l14 -116l-14 -44l14 -188l-14 -260l14 -276l15 -43l-15 -145zM230 361l43 86q-1 -54 -43 -86zM244 549q65 -29 116 -72zM259 838q30 -13 43 -43q-33 14 -43 43zM273 650 q32 -8 43 -28zM287 1186q52 -34 88 -73q-52 25 -88 73zM360 622l72 57q-1 -49 -29 -87zM375 810q28 -24 28 -59q-28 19 -28 59zM491 737q46 -10 72 -43q-50 9 -72 43zM650 795h14v-29zM679 751q103 -2 116 -86zM852 447q88 -29 159 -72q-89 29 -159 72zM867 1113l43 58h14 v-29l-14 -72zM1113 259h14v-29z" />
<glyph unicode="L" horiz-adv-x="1059" d="M68 1224l29 -44v-551l14 -58l-14 -44v-188l-15 -130l44 -131l44 -58l449 30l43 -30l247 15l87 115q-23 48 -29 88q-21 114 -101 173l-102 30l-145 -44l-145 14l15 116l-30 247l30 44v58l14 43l-14 116l14 145l-14 130q-135 68 -262 73q-111 -59 -159 -159zM198 629 q68 -41 102 -102q-62 48 -102 102zM227 1108l15 58q26 -11 29 -29zM286 1064q23 -13 28 -43zM329 223q34 -14 44 -44q-33 14 -44 44zM691 252l87 -43q-48 7 -87 43z" />
<glyph unicode="M" horiz-adv-x="1588" d="M85 660l43 -159l-29 -173v-202q66 -54 131 -73l43 -14l130 14q62 43 101 101l-72 289l15 188l-15 43l15 131l-29 159l43 72v-72l29 -174q4 -75 29 -144l72 -318l15 -188q48 -60 101 -101l130 -15v15h43q62 32 116 71l15 44l-15 130q40 82 58 145l72 477q20 66 57 116 l-57 -853q26 -69 73 -116q84 -26 158 -29q77 36 130 72l15 188l-15 145l15 14l-15 29v130l-14 44l14 130v390q-12 86 -43 160l-173 28l-188 -14q-77 -25 -131 -73l-29 -158q-23 -73 -28 -145l-29 -174l-29 -57l14 -87l-28 -130l-15 -30l29 -14l-14 -58l-44 -57 q-31 15 -44 43q26 90 29 174l-14 188l-43 159l-44 317q-43 64 -101 102l-159 14q-103 11 -173 29l-116 -72l-29 -116l14 -43l-14 -188l43 -159zM230 472h57l-43 -43zM244 1036q16 39 43 58q27 -32 29 -72zM259 674l14 44l-14 72l14 -14l58 14l-29 -72zM302 1195h14v-29z M331 1007h14v-29zM331 1109l28 43h15v-43h-43zM389 1195q24 -14 29 -29zM1271 862l43 88q-7 -49 -43 -88zM1299 1065h15v-43z" />
<glyph unicode="N" horiz-adv-x="1347" d="M74 1255q33 -142 44 -262l-15 -44l-15 -87l30 -263l-15 -131l15 -101l-15 -160q19 -115 88 -190l247 30l73 57l-30 437l-43 190l29 44l73 188l-59 44h88l-15 -87l-58 -204l102 -204q56 -97 117 -175q35 -123 87 -218q94 -76 203 -102l219 73l29 44l-14 276l14 44l-29 101 l15 44h-15v44l29 204l15 15h-15v29l-14 44l14 160q-3 145 -44 262l-58 29l-160 -15q-127 -24 -131 -145l-15 -44l44 -466v-88l-58 161l-320 568l-277 29q-107 -44 -160 -131zM220 512h72l-14 -44zM234 1051q30 -9 44 -29zM278 775l58 -44q-38 12 -58 44zM307 352l58 -44 q-38 7 -58 44zM307 1211q128 -41 145 -160q-97 76 -145 160zM336 599h15v-28zM365 1036h15v-29zM438 935v43h58l-44 -43h-14zM685 628h117l14 -29l-14 -58q-69 42 -117 87zM860 381l29 58l59 -14zM875 585l29 43q-7 -29 -29 -43zM889 352q41 -30 59 -58q-46 21 -59 58z M962 1051l14 72l44 -14l-15 -58l-14 15zM976 818q25 -26 29 -59zM991 207q34 31 73 43q-25 -39 -73 -43zM1020 687l73 -29q-41 3 -73 29zM1108 891l43 -15l-15 -14q-23 9 -28 29z" />
<glyph unicode="O" horiz-adv-x="1461" d="M91 552l83 -264q98 -92 181 -153q121 -77 237 -111l305 14q129 68 209 125l167 181q52 141 70 278l-14 56q6 82 28 152l-84 237q-77 119 -167 181q-124 72 -236 97l-97 28h-223l-209 -125l-167 -181q-58 -136 -69 -250zM230 956h42l-14 -42q-22 15 -28 42zM258 580l14 42 h13v-28zM258 775l27 70q36 -37 43 -84l-28 -14zM300 399l13 56l28 -14zM383 538h14v-28zM383 1025h56l-28 -55q-22 23 -28 55zM425 1150l56 -28q-32 4 -56 28zM466 706l28 180l181 139q119 -33 209 -83q62 -92 69 -181q-10 -140 -41 -236q-69 -91 -167 -126q-126 20 -209 98 q-62 107 -70 209zM466 1053q25 -9 28 -28q-25 9 -28 28zM592 191l28 69l41 -55l-28 -28zM758 149v42q22 43 56 69q38 -26 42 -69l-55 -28zM939 1164l139 -125q-112 25 -139 125zM1037 497q23 -14 28 -28q-25 9 -28 28zM1065 580l69 56h55l-83 -56l14 -111q-38 57 -55 111z M1093 775q24 -9 27 -28q-23 11 -27 28zM1148 817l41 -15l-13 -13q-24 9 -28 28z" />
<glyph unicode="P" horiz-adv-x="1330" d="M86 112l14 -43l100 -43l142 -14l128 57q39 85 57 171l-43 71l43 143l129 -29l284 14q118 82 199 157q70 130 100 228l-29 285q-82 109 -170 170l-242 71h-342v-14h-43q-130 28 -227 29l-86 -57l-14 -128l14 -43v-285q4 -64 15 -114l-15 -43v-142l-14 -57l14 -42v-214z M256 596l29 -43q-21 14 -29 43zM271 311q4 80 43 143q-1 -85 -43 -143zM271 766l57 72l43 -28l-15 -72l29 -128q-53 53 -85 114zM271 1137h14v-28zM300 1066l71 56l14 -13l-14 -58zM314 553q25 -9 28 -28q-24 9 -28 28zM442 539l14 71l43 -28zM470 795l14 228l300 -29 l56 -28q-20 -103 -56 -185l-115 -15l-42 -13h-29l-28 -15l-71 15zM541 1166l57 28q-13 -28 -57 -28zM868 1137q47 -19 58 -57q-40 25 -58 57zM883 695q33 -31 43 -71q-36 28 -43 71zM940 753l14 42l57 -14l29 14q-48 -36 -100 -42zM983 866l42 72q-26 72 -28 142 q43 -60 57 -128l28 -57l-57 -43z" />
<glyph unicode="Q" horiz-adv-x="1453" d="M83 770l28 -349l56 -126l70 -112q65 -33 112 -70l112 -70l153 -28l323 42l41 42l182 -112l28 -28l112 15l84 97l28 154l-126 70l-56 14l84 196l28 167l-14 168l-98 265l-196 168l-140 43l-308 41q-74 -31 -139 -41l-98 -84q-61 -40 -98 -84l-84 -99l-56 -125 q-22 -76 -28 -154zM237 686l28 28l28 -14l-14 -70zM265 546q31 -12 42 -41q-31 6 -42 41zM279 924l70 84l56 -14q-35 -81 -42 -154q-43 51 -84 84zM293 406l28 56l56 -84zM363 281q25 -10 28 -28q-21 13 -28 28zM433 630l56 210q55 111 153 168q116 -22 211 -56 q59 -103 97 -210l-13 -42l-15 -223l-168 -140q-97 37 -181 84q-96 82 -126 181zM545 281q24 -10 28 -28q-24 9 -28 28zM726 1189q42 -41 43 -97q-35 43 -43 97zM838 1176l56 -28q-32 4 -56 28zM881 239h97l-84 -56zM992 365h14v-43zM1020 1036h70l28 -56l-28 -56 q-47 49 -70 112zM1062 267q52 -42 84 -98q-75 24 -84 98zM1090 477l84 -15l-28 -69q-36 30 -56 84zM1174 505q25 -10 28 -28q-24 9 -28 28zM1174 812h14v-28z" />
<glyph unicode="R" horiz-adv-x="1360" d="M89 444l14 -147l16 -45l-16 -133q63 -63 134 -103l177 15q73 46 118 103l-29 118l14 45l-14 177q13 24 29 29l30 15l88 -15q38 -81 59 -162l74 -133l104 -133q86 -24 176 -29l178 15l44 29q-10 68 -30 118l-73 147l-148 207l29 44q83 47 133 89l75 207l-16 148 q-26 86 -59 162l-117 88l-163 74l-192 -15l-45 15l-147 -15l-45 15l-29 15l-103 -15l-207 15l-45 -30l30 -118l-30 -44l16 -133l-16 -133l16 -44v-221l-16 -178zM237 1153l29 59l74 -59h-103zM266 798q37 -21 45 -59q-31 25 -45 59zM281 385h14v-30zM281 414v30l30 -14z M281 990q54 -20 74 -59q-48 19 -74 59zM325 503l59 -29q-33 3 -59 29zM325 606q4 54 45 89l73 -45q-63 -18 -118 -44zM458 946q34 61 59 133q169 -10 295 -59q57 -71 75 -148l-104 -44l-236 -30q-32 15 -44 44zM458 1270q26 -9 29 -29q-25 11 -29 29zM901 710q48 -11 74 -44 zM916 1153l29 -15l-14 -59zM990 887l44 59h59l-30 -148zM990 1050l14 29h15v-29h-29z" />
<glyph unicode="S" horiz-adv-x="1290" d="M32 291q153 -178 312 -241q126 -39 226 -42l213 42q117 19 212 57l142 127l71 199q-4 127 -42 226q-63 75 -142 128q-93 39 -184 57l-227 42q-99 29 -114 113l57 29l156 -14l170 -100q108 9 199 43q65 83 99 170q-66 73 -142 127q-109 55 -198 85l-213 57l-198 -57 q-102 -43 -184 -99l-114 -142l-28 -212q25 -105 71 -198l141 -128l213 -28l42 -14l199 -14q42 -41 42 -86q-41 -30 -85 -42l-156 -14l-71 28q-91 50 -155 100q-104 -8 -170 -72q-101 -43 -142 -127zM287 291l15 28l56 -13q-30 -39 -56 -57zM287 773q23 95 71 169l28 -42 l-42 -127h-57zM330 1070l56 43l28 -57zM372 1198l42 -15l-14 -13q-24 9 -28 28zM400 277h14v-28zM429 1226q25 -9 28 -28q-24 9 -28 28zM471 178h99l-71 -28q-25 9 -28 28zM570 1141l43 57q-3 -41 -43 -57zM585 730l28 43l42 -15l-13 -42zM642 221h13v-29zM670 178 q24 -9 28 -28q-23 14 -28 28zM754 1198q82 -31 142 -85l-99 -28zM797 659q41 -61 85 -99l14 57l42 -43l29 -14l-14 -28l-85 14q-57 47 -71 113zM840 291q33 -40 42 -85q-40 34 -42 85zM882 334l28 -43q-22 15 -28 43zM925 433l42 -15l-14 -13q-24 14 -28 28zM982 674 q31 -31 42 -71q-36 30 -42 71z" />
<glyph unicode="T" horiz-adv-x="1174" d="M57 1192q13 -141 103 -237l207 45q33 -1 44 -30l-59 -148l30 -133l15 -44l-30 -44l15 -207l-15 -251l-15 -30l15 -59q96 -43 192 -59q144 39 222 148v103l-14 59l14 163l-14 325l14 44l-14 222l251 -45l73 30l30 162l-14 59l-45 89l-44 15l-326 -15l-44 -14l-103 29 l-59 -15q-152 8 -267 30q-126 -70 -162 -192zM235 1162l29 44q24 -13 30 -29zM456 1162q25 -13 30 -29q-26 11 -30 29zM515 1014l30 -44q-24 15 -30 44zM515 1192q30 -24 44 -59q-37 26 -44 59zM530 409l15 29h14v-44zM530 616l45 192l28 -45l-28 -133zM545 290l44 45 q-8 -36 -44 -45zM545 852q3 61 30 103q-3 -58 -30 -103zM559 482l30 30l30 -15zM648 1073l44 -29q-30 9 -44 29z" />
<glyph unicode="U" horiz-adv-x="1305" d="M98 668l43 -360q58 -78 115 -131l131 -115l201 -28l44 -15l58 30l72 -15l187 57l131 115q52 62 86 131q26 118 29 216l14 57l-29 145l15 216q-7 64 -29 115l43 43l15 160l-15 57q-106 34 -202 43l-173 -57l-29 -43l-14 -29l29 -102l-15 -187l15 -58l-15 -158l15 -217 q-23 -95 -72 -158l-44 -15l-144 29q-45 78 -58 144l-14 231l28 520l-72 57q-105 30 -202 43l-144 -86q0 -125 14 -231l-14 -159v-245zM242 928l29 86l44 -43l-29 -72zM286 610l29 58l14 -15v-57zM315 524q25 -10 29 -29q-24 14 -29 29zM358 409q24 -15 29 -29q-24 9 -29 29z M401 351h15v-43zM545 221q26 -11 29 -29q-25 11 -29 29zM964 1057h14v-43zM978 625h14v-44zM978 639l29 145l58 -87l-58 -29q-11 -26 -29 -29zM1021 1101q25 -15 30 -29q-26 11 -30 29z" />
<glyph unicode="V" horiz-adv-x="1078" d="M-63 1289l87 -290q33 -102 43 -189q48 -79 73 -145q20 -98 59 -175l116 -349q37 -77 87 -130l218 15q80 17 145 58q40 94 58 174l44 145q13 72 44 146l174 493q16 94 44 175l43 58l-43 87q-96 -3 -174 -29l-59 44l-87 -44q-78 -59 -87 -145l-102 -349l-29 -203l-15 -44 l30 -102q-60 67 -73 146q-33 88 -44 189l-145 493q-101 44 -189 59l-174 -59zM242 679q32 -8 44 -29zM300 650q66 -19 116 -58q-71 22 -116 58zM446 461h14v-44zM576 214h73l-43 -57zM663 433l59 -30q-37 3 -59 30zM765 694l30 -15l-15 -29zM823 985q21 55 59 87l14 -15v-72 h-73zM939 1129l16 30h14v-30h-30z" />
<glyph unicode="W" horiz-adv-x="1539" d="M-85 1284l72 -284q5 -75 27 -142l71 -242l-14 -42l57 -128q9 -95 29 -171l56 -113q26 -76 72 -128l113 -14l199 57q31 77 42 141l100 469v43l-14 28l14 85l42 57l15 -227l99 -468q21 -73 57 -128q65 -33 128 -43h184l71 128l14 43q-5 72 -14 113l57 128l199 738l28 57 l-42 71l-128 57l-185 -15q-47 -52 -71 -113l-56 -511q3 -75 28 -128q-13 -67 -43 -113q-45 43 -71 99l29 28l-100 554q-16 74 -43 128q-51 35 -113 43l-142 13q-65 -8 -113 -42l-15 -156l-99 -469l28 -99q-48 -40 -99 -57l28 128l-71 298v185q-24 76 -28 142q-39 52 -100 85 h-199zM142 886h43l-14 -85q-28 46 -29 85zM157 1099l14 43l28 -43h-42zM228 744h13v-28zM327 502v29l28 -14zM369 418q68 -30 100 -86q-71 30 -100 86zM441 460q24 -10 28 -28q-23 14 -28 28zM682 1028l57 128q69 -57 142 -86l-28 -56l-86 43l-14 -71zM923 574l14 28h15v-43 zM1051 218l29 57l42 -28q-28 -37 -57 -57zM1080 432q25 -10 28 -29q-24 16 -28 29zM1293 744q26 -25 28 -57q-26 26 -28 57zM1335 900h14v-28zM1377 1014h15v-43z" />
<glyph unicode="X" horiz-adv-x="1210" d="M-55 156q42 -99 144 -115l230 -15q73 69 129 144l87 187l85 129q56 -105 87 -201l100 -158q88 -70 188 -101h85l43 -14l101 29l58 57q-21 70 -43 116l-130 128l-100 188l-115 144q-31 23 -43 56l57 116q68 79 115 158l187 244l-43 72l-44 14l-200 15q-104 -9 -173 -72 l-72 -187l-29 -115l-71 58l-72 186q-70 96 -159 130l-244 29q-79 -49 -114 -130l129 -143l100 -159q59 -90 129 -158q-21 -88 -72 -158l-215 -316q-64 -77 -115 -158zM477 587h29l-15 -43zM477 817l29 -43q-23 15 -29 43zM491 759l44 -14l-15 -15q-23 15 -29 29zM520 630 q46 -21 72 -57q-46 23 -72 57zM535 903q55 -46 72 -115q-54 52 -72 115zM649 688q27 -33 29 -72q-25 38 -29 72zM663 932q24 -14 29 -43zM678 573l14 43l15 -58zM879 1090h15v-28zM908 314q54 -45 87 -100q-79 19 -87 100z" />
<glyph unicode="Y" horiz-adv-x="1140" d="M-58 1246l322 -453l103 -103l29 -59l-14 -88l14 -381q12 -62 44 -116l44 -30l117 15q89 12 162 43q28 66 29 132v191l-15 44l15 132q6 67 44 117l322 454q49 57 74 118l-118 87h-205l-132 -73q-42 -65 -58 -132q-52 -56 -74 -117q-29 -39 -73 -44l-59 147l-73 116 l-102 103l-44 15l-118 -15l-176 29q-38 -62 -58 -132zM264 1188h15v-30zM279 1144q32 -8 44 -30zM352 895l74 73l14 -88zM484 749q48 -23 73 -59q-43 24 -73 59zM499 880h14v-29zM528 485l29 73q-2 -41 -29 -73zM557 367q40 -21 44 -58q-36 22 -44 58zM645 675l44 88 q-4 -55 -44 -88zM777 954l15 -15v-73zM865 1086q29 -36 44 -74q-36 30 -44 74zM895 1100l14 30h15v-30h-29z" />
<glyph unicode="Z" horiz-adv-x="1301" d="M75 272l14 -114l144 -115l157 15l57 -29l43 14h329l29 -14l85 14l216 -14q37 90 42 186q23 51 29 100l-86 44l-114 28l-330 -28l-100 13q32 38 71 58q65 76 129 129l243 286q83 55 144 114q22 107 28 215q-4 111 -100 143l-143 -28l-57 28l-272 14l-43 -14l-357 58 l-100 -158l42 -200q110 -28 201 -29l443 43q31 -32 43 -72l-86 44l-157 -100l-515 -531zM289 287l44 -29q-30 9 -44 29zM347 215l57 -28q-36 0 -57 28zM361 301q25 43 57 58l15 156q56 -38 72 -100l-72 -143zM461 1146q26 -11 29 -29q-25 10 -29 29zM533 344h14v-29z M561 687q26 -9 29 -28q-25 11 -29 28zM690 759h43l-14 -43q-21 14 -29 43zM762 802q24 -16 28 -43q-26 14 -28 43zM805 1146l57 -15l-43 -14zM848 945q34 -12 43 -42zM977 1003q25 -10 28 -29q-25 9 -28 29z" />
<glyph unicode="[" horiz-adv-x="569" />
<glyph unicode="\" horiz-adv-x="569" />
<glyph unicode="]" horiz-adv-x="569" />
<glyph unicode="^" horiz-adv-x="961" />
<glyph unicode="_" />
<glyph unicode="`" horiz-adv-x="507" d="M62 1733q-6 -86 22 -133l5 -24l102 -117q62 -62 117 -103l22 -9l33 13l68 73q-11 73 -37 128l-82 152l-13 32l-6 24q-33 38 -100 30t-131 -66z" />
<glyph unicode="a" horiz-adv-x="1130" d="M-72 123l72 -101l158 -14l158 29l72 115q33 63 86 86l172 -15l129 15q22 -85 58 -158q55 -38 115 -58l158 29l115 72q-9 72 -43 129l-302 790l-29 144q-34 70 -72 115q-65 29 -129 43l-172 29q-122 -84 -158 -201q-37 -69 -58 -130q-29 -70 -43 -144l-57 -114l-100 -273 l-15 -144q-79 -130 -115 -244zM172 166v100h14v-28zM273 712q50 -54 72 -115q-59 48 -72 115zM330 770l15 28l14 -28h-29zM359 842q30 107 71 186l29 -43l-57 -158zM402 439h28l-14 -43zM445 1057l14 86q47 -30 72 -72l-57 -29zM474 568l28 115q53 135 72 244 q40 -108 58 -201l43 -172l-72 -15q-77 8 -129 29zM488 1229q31 -7 43 -28zM618 1028q30 -25 43 -58q-37 22 -43 58zM690 927l28 72q-1 -38 -28 -72zM690 1100l14 29l29 -29l-29 -86zM718 396q19 54 57 86q51 -44 87 -86q-5 -50 -29 -86l-58 86h-57zM818 669l87 -115 q-71 48 -87 115zM905 367l29 58l14 -58h-43zM919 252q31 56 43 115l44 -29l-15 -115z" />
<glyph unicode="b" horiz-adv-x="1334" d="M78 1276l30 -206l-16 -321l16 -59l-16 -235l16 -322q16 -60 44 -102l44 -15l160 15h44l44 -15l220 15q180 5 308 29q128 73 204 161l60 103l14 43l-14 132q-45 139 -147 220l-88 15q83 50 147 102l44 44q3 37 14 59l-14 161q-80 124 -162 205q-146 50 -278 73 q-172 -26 -293 -29l-59 15l-248 -15zM254 338l58 44q34 -86 44 -161l-44 -15zM254 543l29 -14l-15 -30zM254 807l58 44l44 -15l-44 -73q-36 13 -58 44zM254 1218q26 -11 29 -30q-24 10 -29 30zM268 705h15v-30zM283 998l44 44q28 -37 29 -74zM312 587l74 -44q-47 11 -74 44z M386 221q26 -11 29 -29q-25 10 -29 29zM415 265q65 -39 102 -88q-61 39 -102 88zM444 793q34 -13 44 -44zM459 543l249 30q108 -41 132 -147q-151 -54 -264 -73l-88 14zM459 1012l190 15l191 -59q-93 -78 -191 -102l-44 -30l-117 30zM488 1232q58 -13 103 -44zM737 1202 q52 -23 59 -72q-44 26 -59 72zM811 749h29l-15 -44zM825 280q40 -23 44 -59q-37 22 -44 59zM855 778l44 -15l-15 -14q-24 9 -29 29zM899 880l14 30h15v-44zM899 1144q54 -39 73 -88q-57 34 -73 88zM913 587q24 -14 29 -44zM986 338l30 73q-1 -41 -30 -73zM1030 441 q26 -11 30 -30q-26 12 -30 30z" />
<glyph unicode="c" horiz-adv-x="1301" d="M91 609l14 -184l71 -155l113 -113q73 -59 142 -100l183 -42l213 14q93 24 170 56q56 64 113 114l99 127q-20 89 -71 142l-141 85q-76 -52 -113 -113q-86 -45 -156 -71q-84 6 -156 43q-48 75 -71 141q-27 111 -28 198q20 94 56 170l142 85q97 -26 170 -57q56 -66 113 -113 q94 23 170 57l99 128l-85 141l-127 113l-156 71l-198 28l-184 -42l-268 -184l-72 -156l-42 -184l14 -142zM247 751q50 -53 56 -113q-42 52 -56 113zM289 609h14v-28zM303 822q21 47 57 71q-18 -47 -57 -71zM345 1006l29 127h57l-43 -112v-15h-43zM374 383l155 -127 q-127 6 -155 127zM388 977h14v-28zM586 1162l184 56l43 -42l-170 -43zM614 142l15 85h14v-28zM756 227q30 -13 42 -42q-32 12 -42 42zM884 1063l13 70h85l-28 -56zM1011 341h28l-14 -43z" />
<glyph unicode="d" horiz-adv-x="1398" d="M95 594l30 -90v-44l-15 -208q5 -136 89 -222l44 -16l164 -14l103 30l238 15q152 30 267 88q114 61 178 163q61 135 89 253l30 133l-30 60l15 74q-15 161 -74 282l-163 178l-238 104l-653 14q-64 -121 -74 -236l15 -164l-15 -148l15 -120zM258 386l30 88q40 -55 45 -118z M258 712q52 -50 75 -104q-55 43 -75 104zM273 1083q78 -27 89 -119l-29 -74q-45 96 -60 193zM273 1098l30 104l59 -44l-59 -31q-11 -26 -30 -29zM288 282q73 -47 119 -89q-97 8 -119 89zM333 757l59 -31q-36 5 -59 31zM362 311l15 30h15v-45zM377 1113l30 45h14v-45h-44z M437 1231h14v-29zM510 386v652l223 -44q90 -58 148 -134l16 -237q-30 -89 -75 -163l-74 -60h-148zM525 237h60l-45 -44zM718 207l45 45q-3 -38 -45 -45zM748 1202q48 -22 74 -60q-47 23 -74 60zM911 1068q25 -10 30 -30q-25 10 -30 30zM926 326l59 -30q-37 5 -59 30z M970 386l60 88q0 -74 -30 -133q-26 13 -30 45zM985 979l30 75l30 -120zM1000 549q24 -17 30 -45zM1074 771l45 -14l-15 -45q-27 27 -30 59zM1074 950q34 -14 45 -45z" />
<glyph unicode="e" horiz-adv-x="1216" d="M86 671l14 -58v-508q78 -63 160 -102q75 35 145 44l131 -14l44 28l492 -14l59 72v131q-2 102 -59 159h-43l-14 15l-29 -15h-146q-127 -1 -232 -28q-95 28 -160 87q41 92 117 116l232 -15l203 15q51 107 58 203q-33 96 -116 116l-159 -14l-59 14l-217 -29l-43 116l57 43 l450 -14q87 51 101 131q-12 110 -43 203l-43 29l-146 -29l-188 15l-232 -15l-232 29q-54 -74 -73 -145v-87l-15 -29l15 -116l-29 -44l29 -145zM231 613q44 -34 58 -88q-45 40 -58 88zM231 874l15 29q26 -11 29 -29l-15 -101l-14 28zM246 424q31 -7 43 -29zM246 1063l29 -44 q-23 15 -29 44zM260 1150h15v-29zM318 352q75 -63 102 -146q-101 44 -102 146zM362 773l29 -44q-23 15 -29 44zM420 685l44 59l43 -44zM652 221l15 72q28 -28 29 -58z" />
<glyph unicode="f" horiz-adv-x="1214" d="M80 216q20 -90 58 -159l28 -43l290 29q38 69 43 144l-14 44l29 318l116 -15l43 15l145 -29l43 -15l145 15q35 75 44 144l14 44l-30 130q-77 27 -158 29h-203l-43 -15l-131 15l-14 44l29 115l44 14l115 -28l203 -15l158 15q64 51 102 116l-29 188q-91 39 -173 43l-174 -29 l-174 43l-173 -29l-174 44q-78 -46 -130 -87l-29 -43l29 -318l-15 -188l15 -203l-15 -44l29 -130zM268 260l29 72l43 -29l-29 -87v29l-29 -14zM268 419l43 57q-6 -41 -43 -57zM268 534l14 73l44 -15l-44 -72zM268 1142l14 86l29 -28l-14 -72zM297 693l58 131l58 -131 l-87 -14zM297 1012l29 72q25 -25 29 -58zM384 1214l72 -72q-54 22 -72 72zM832 693l29 44q-2 -30 -29 -44zM846 1185q27 -9 30 -29q-26 11 -30 29zM905 1142l29 -14l-15 -29z" />
<glyph unicode="g" horiz-adv-x="1389" d="M78 581l43 -216l130 -172l157 -115q132 -50 245 -58q113 11 215 43q56 30 87 72l72 -57q89 -30 186 -44l29 29l43 15l-14 200l29 446l-44 86l-43 15l-101 -15l-359 29l-57 -72l-14 -129q19 -67 42 -115q131 -42 231 -43q-98 -63 -187 -101q-121 21 -216 58 q-69 82 -72 173v43l-14 43l29 143q55 91 129 159l129 14l115 -29l173 -115l201 86l58 58q-23 66 -58 115l-158 143l-244 101l-216 15l-216 -72l-157 -130l-130 -158l-29 -115l29 -115q-31 -105 -43 -215zM236 767l44 -14l-15 -15q-24 10 -29 29zM251 926q61 -52 71 -116 q-44 54 -71 116zM308 494l43 87l43 -29l-58 -43v-15h-28zM308 983l43 -14l-15 -15q-21 14 -28 29zM380 322l100 -58l-14 -86q-55 74 -86 144zM380 451h14v-43zM380 1041l14 57q26 -9 29 -28zM768 222q23 -14 28 -29q-23 9 -28 29zM825 1127q15 38 43 57q-10 -37 -43 -57z M912 322q43 -39 57 -86q-46 34 -57 86zM984 437q31 -7 43 -29zM1012 523l86 43q-1 -71 -42 -115q-32 35 -44 72zM1027 653h14v-43zM1098 336h29l-15 -43z" />
<glyph unicode="h" horiz-adv-x="1317" d="M83 266q5 -72 14 -114q55 -82 129 -129q127 4 230 43q33 114 42 215l-28 229l28 57l29 14l115 -14q107 11 200 43q23 -15 29 -43q-21 -69 -29 -143l-14 -243q33 -105 129 -129l57 -15l158 15q50 86 57 172l-28 486l14 58l-14 43l28 372q-12 95 -57 172l-43 14l-157 -14 q-104 -11 -158 -86q6 -108 28 -200l15 -158l-29 -58l-14 44l-186 14q-87 -36 -158 -86l-43 43l58 86l13 229q-17 96 -57 172l-229 14q-65 -56 -100 -128l-29 -58l14 -158l15 -56l-15 -144l15 -215l-15 -29v-228l15 -44zM212 697q38 87 57 171l29 -43l-29 -115zM226 481 l72 15q-12 26 -29 29l15 100l57 -115l-72 -43zM284 1025q12 44 43 72q-6 -50 -43 -72zM398 668l29 71l29 -14l-15 -86zM657 753h13v-28zM857 853q40 -55 43 -128q-42 62 -43 128zM957 295q50 -12 86 -43q-49 13 -86 43zM972 710q44 -18 57 -57q-53 17 -57 57zM1014 954 l43 -14l-14 -58q-25 34 -29 72zM1029 496l43 -15l-15 -14q-24 10 -28 29z" />
<glyph unicode="i" horiz-adv-x="577" d="M91 249h14v-158q92 -47 187 -71q105 20 186 57l15 57l-15 158v43l15 29l-15 114v58l-14 42l14 130l15 14h-15v186l15 43l-29 115l14 43l15 201l-187 72l-186 -58l-29 -43l14 -158q0 -128 15 -229l-15 -215l15 -201l-15 -172zM220 894l115 -43q-74 1 -115 43zM263 249 l14 86q27 -72 29 -144l-29 29zM263 536v100l29 -29zM292 694h14v-44zM292 1210l29 -44q-25 17 -29 44z" />
<glyph unicode="j" horiz-adv-x="789" d="M57 257q2 -120 58 -205q63 -39 118 -59l73 30q134 5 235 44q73 63 131 146l15 44l15 146l-15 59l15 748q-27 118 -118 176l-102 -30l-117 30l-74 -74l15 -117l-15 -59l30 -146l-15 -235l-15 -58l30 -118l-15 -44q-2 -116 -103 -146q-111 -30 -146 -132zM233 227l44 -44 q-31 16 -44 44zM365 301q66 -34 88 -88q-63 35 -88 88zM394 462l73 117h15v-161q-8 -37 -29 -59q-18 58 -59 103zM467 1034q64 -41 103 -88q-69 31 -103 88zM497 726h14v-44z" />
<glyph unicode="k" horiz-adv-x="1351" d="M83 362l14 -188q20 -104 102 -146l233 14q67 82 72 175v29l-29 145l14 58q67 70 146 117l73 -189l217 -335l44 -14l188 14q108 2 175 73q-46 100 -102 175q-53 95 -87 188l-130 131l-117 160q1 91 44 159q94 54 160 117l217 203l-44 73l-43 29h-217q-102 -17 -175 -44 l-130 -131q-56 -89 -87 -174q-78 -70 -132 -145l-87 14q39 53 59 102l43 232q-46 102 -131 146l-232 14q-39 -105 -44 -203l-14 -247l14 -364l15 -28l-15 -116zM243 566l14 116q60 -25 102 -73l-44 -43q16 -67 44 -117q-58 28 -73 87zM257 943l58 -29q-37 1 -58 29z M257 1117q41 -34 58 -87q-41 35 -58 87zM272 347q36 -76 43 -145q-38 72 -43 145zM301 769h14v-44zM489 667h15v-29zM693 739q36 -25 44 -57q-34 23 -44 57zM867 522q32 -8 44 -29q-32 2 -44 29zM925 275q34 31 73 43l15 -28zM1027 1161q26 -11 29 -29q-23 14 -29 29z" />
<glyph unicode="l" horiz-adv-x="1043" d="M70 514l29 -131l-15 -102l15 -160q18 -60 44 -102h160q160 6 291 29l306 -14l72 58l-14 291q-80 24 -160 29l-44 15l-218 -44l-59 -29l15 43h-15l-14 423l29 44l-29 189l29 218l-29 44q-138 63 -262 73q-112 -77 -131 -190l14 -43l15 -102l-15 -131l15 -277zM230 587 l44 87q-11 -52 -44 -87zM244 1009l16 59q27 -36 28 -73zM244 1169l30 29h14v-43zM274 369l14 87l44 -29q-28 -42 -58 -58zM274 777l29 87l29 -15l15 -29l-15 -59q-38 5 -58 16zM303 1141l73 -59q-48 19 -73 59zM317 237l15 73l72 -14l-43 -73z" />
<glyph unicode="m" horiz-adv-x="1584" d="M74 1036l14 -14l15 -452q-3 -68 -15 -117l15 -43l-15 -146l15 -175q76 -37 146 -58l175 15l72 116l-43 160l-15 175l15 29l-15 102l15 44l-29 277q2 26 29 43v-73l43 -145q4 -70 30 -132l14 -145l44 -160l15 -161q34 -69 87 -116q75 -30 146 -44l131 58q36 80 44 160 l87 481q25 79 29 146l-15 73l73 -15l-14 -116q-6 -44 -6.5 -106t6.5 -142l-44 -422l88 -102l145 -15q80 34 132 73l14 29l-14 102l14 44l-14 116l-16 569l30 29l-14 116l14 175q-56 54 -117 73l-160 15l-160 -15l-102 -73l-44 -160q-32 -74 -43 -146l-30 -160l15 -44 l-15 -117l-43 -145q-26 -25 -59 -29l-14 14l14 44l29 44l-29 87l-14 161l-102 480l-117 73l-160 -14l-175 14q-51 -48 -88 -102l-14 -43l14 -117zM234 322q58 -42 88 -88q-66 36 -88 88zM249 614l15 58l43 -15l-15 -43h-43zM264 992l43 102l44 -87l-44 -44q-31 9 -43 29z M292 526q49 -20 59 -58q-46 21 -59 58zM322 1196h14v-29zM540 1065q26 -11 29 -29q-23 14 -29 29zM730 278q42 -12 73 -44q-47 14 -73 44zM817 395q30 -37 44 -88q-38 38 -44 88zM1080 1007l28 -44q-24 16 -28 44zM1080 1123l58 44h58l-58 -73q-11 -28 -30 -29zM1284 380 l43 -29q-33 2 -43 29zM1284 1109l14 44l14 -59zM1298 1007q46 -24 58 -73q-42 28 -58 73z" />
<glyph unicode="n" horiz-adv-x="1334" d="M74 1272q23 -118 29 -217v-361l14 -28l-14 -116l14 -275q-5 -72 -14 -115l43 -101l58 -29l44 -14l115 14q105 38 144 130l-43 477l-72 187q77 -50 115 -115l274 -549q74 -84 174 -101l57 -14l160 14l72 72l-15 130l15 866l-15 44l15 101q-63 106 -174 115l-202 -57 q-33 -46 -43 -87l43 -390l58 -173q-99 53 -130 144l-289 534l-245 15q-123 -15 -188 -101zM248 983v43l28 101l72 -115zM262 275l43 73q31 -34 43 -73l-43 -29zM276 449l15 72l29 -15l-15 -72zM320 1157l72 43q23 -13 28 -73zM348 998l44 -29q-30 7 -44 29zM435 1026 q24 -14 29 -43q-27 13 -29 43zM464 926h14v-29zM464 1084q25 -10 28 -29q-23 10 -28 29zM522 926q55 -54 72 -116q-49 54 -72 116zM781 492l15 29h29l-14 -43zM825 391l58 58l29 -130q-44 43 -87 72zM926 535l43 87q26 -9 29 -28l-29 -88zM984 246l28 88l15 129l43 -29 l-29 -86q-2 -78 -29 -130q-26 7 -28 28zM1027 911h14v-43zM1056 1070l28 87q0 -56 -28 -87zM1070 838h30l-16 -57z" />
<glyph unicode="o" horiz-adv-x="1419" d="M69 709l14 -140q24 -130 69 -235q77 -115 153 -181q110 -82 208 -124l305 -14q138 48 236 97q99 87 153 181q90 106 110 221l28 291q-51 146 -70 264l-166 167q-119 68 -235 97q-160 33 -306 41q-125 -57 -208 -125q-100 -87 -166 -166q-66 -121 -97 -236zM222 667 q50 -24 69 -70q-56 20 -69 70zM263 737q13 22 28 27l-14 56q25 -10 28 -28l-14 -83q-26 8 -28 28zM305 431q36 28 55 55q31 -14 42 -41l-70 -56zM305 930l14 42h13v-27zM402 972l13 56q24 -15 28 -28zM402 1125l28 -42l-15 -28zM443 681l70 208q84 79 166 124 q106 -34 195 -83q38 -111 55 -221l14 -42l-42 -181q-90 -55 -180 -97q-115 32 -194 84zM485 223l55 70q36 -46 42 -98zM540 1180q79 -24 83 -97q-56 48 -83 97zM651 1236l14 41h14v-41h-28zM776 306q44 -23 56 -69zM832 1194h14v-28zM846 251l28 -42q-24 16 -28 42z M957 1028l42 -28q-32 2 -42 28zM971 278q23 75 83 125q-8 -83 -83 -125zM984 1041l28 42h14v-42h-42zM1040 833l55 84l42 -42q-25 -52 -55 -83q-31 12 -42 41zM1040 1138h14v-41zM1151 653q24 -9 28 -28q-24 10 -28 28zM1165 528l42 -27q-29 5 -42 27z" />
<glyph unicode="p" horiz-adv-x="1313" d="M95 450l14 -114v-240l28 -44l44 -28l56 -14l156 14q114 77 128 199l-28 199l71 14l141 -28l128 28q137 19 242 85q84 108 128 214l28 42v43l-14 42l14 142q-35 136 -114 228q-130 72 -255 85l-142 28l-128 -14l-298 29q-137 -36 -199 -143l14 -355l15 -42l-15 -185 q-3 -35 -14 -57h14v-85zM237 266h14v-29zM237 536q24 -15 28 -43zM237 933q24 -13 28 -28q-24 10 -28 28zM265 422q26 -11 29 -29q-24 10 -29 29zM265 891q46 -10 72 -43q-42 10 -72 43zM280 1160q45 -20 71 -56q-54 9 -71 56zM308 1019h14v-29zM337 336l56 -42 q-36 12 -56 42zM337 805q29 -24 42 -57q-37 20 -42 57zM351 493l42 114l43 -29l-43 -114zM365 607l14 57l29 -15zM465 976q30 38 56 57l298 -57l29 -43l-15 -99q-45 -54 -84 -86l-44 15l-99 -28q-66 4 -113 42l-15 114l15 42zM692 635q36 -37 42 -85q-33 37 -42 85z M777 1160l56 57q25 -14 29 -28l-43 -57zM919 735q55 52 114 85l13 -28l-28 -72zM933 649h14v-28zM947 1004h14v-28zM947 1118l29 29l28 -43l-43 -14zM976 848l42 -28q-31 7 -42 28zM1004 933l42 57q-4 -40 -42 -57z" />
<glyph unicode="q" horiz-adv-x="1449" d="M87 593l71 -243q32 -73 71 -129l100 -85l129 -71q80 -33 143 -43q63 -3 114 -14l328 85l99 -85l129 -57q70 37 114 86q33 79 43 142q-16 73 -57 114q-66 32 -100 86l57 99l43 143l-43 343l-57 128l-86 100q-51 62 -100 100l-128 57l-314 43l-270 -100q-61 -49 -100 -100 l-100 -86l-57 -128l-29 -171l14 -171zM287 478l14 43l-14 143q49 -52 57 -114q18 -90 57 -157q-77 33 -114 85zM301 749l14 86q24 -14 29 -28zM315 1049h43l-14 -43zM358 921h15v-43zM415 307l29 -42q-23 14 -29 42zM458 678q14 141 57 243l186 128q100 -30 171 -85 q75 -110 85 -215q-10 -138 -43 -256q-77 -98 -185 -114q-117 8 -185 86q-78 102 -86 213zM515 1177h14v-42zM586 236q42 -26 43 -71q-33 33 -43 71zM800 193h14v-43zM914 1163q68 -53 100 -128zM1043 236l14 71l72 -57l-44 -42zM1071 636q52 -20 71 -58q-46 19 -71 58z M1100 992q87 -30 100 -114q-59 51 -100 114zM1129 749v72h56q-22 -44 -56 -72z" />
<glyph unicode="r" horiz-adv-x="1339" d="M82 219q19 -90 59 -162l147 -45q100 15 178 45l30 44q-10 68 -30 118l30 44l-16 119l-28 88l58 44q79 -19 134 -73l88 -134l59 -147q52 -81 118 -118l44 15l133 -15q97 24 178 59l-44 162l-89 103q-33 83 -74 148q-34 33 -45 74l60 30q66 42 118 103l59 193l-15 147 l-59 162l-133 89q-89 39 -162 59l-30 15l-118 -15h-296l-29 15l-89 -15l-192 30q-33 -84 -44 -178q10 -101 30 -177l-16 -207v-73l-14 -30l14 -89zM200 426q24 -15 30 -44zM215 677q24 -14 29 -30q-25 11 -29 30zM244 898q24 -13 30 -44q-26 17 -30 44zM288 750l45 45 l15 -15v-59zM392 692q24 -15 30 -30q-26 10 -30 30zM392 1223h15v-29zM466 1002q27 45 59 74q156 -16 281 -59q39 -53 59 -103q-56 -57 -104 -89l-251 -45l-30 45zM761 677q59 -29 104 -74q-65 24 -104 74zM865 588q25 -14 29 -30q-24 10 -29 30zM880 1223q26 -9 29 -29 q-24 15 -29 29zM894 248l15 45h15v-45h-30zM894 1106l30 73l44 -44zM953 721q27 -11 30 -29q-27 9 -30 29z" />
<glyph unicode="s" horiz-adv-x="1292" d="M31 330q16 -66 42 -113l142 -127q104 -49 198 -71h42l42 15l43 -29l99 14l28 -14l198 29l170 98l113 155l57 227q-30 96 -85 184q-74 71 -155 113l-213 56l-240 28q0 103 99 114q101 -13 183 -42q101 -44 199 -57q89 61 155 127l29 113l-72 57l-339 169h-42l-57 -14 l-155 14l-184 -85l-142 -127q-56 -98 -85 -184l29 -225l113 -156l170 -71l42 14l184 -28q112 -25 198 -71q-90 -60 -184 -84q-121 20 -212 56q-88 51 -170 71l-170 -99zM342 1065q51 -51 71 -113q-46 58 -71 113zM385 755h14v-29zM441 1207q24 -16 28 -43zM497 698l15 85 q44 -26 57 -71zM696 147l13 70l15 -14v-71zM709 740q57 -45 85 -99q-56 43 -85 99zM865 655q30 -7 43 -28zM950 542h15v-28z" />
<glyph unicode="t" horiz-adv-x="1157" d="M49 1211l14 -190l103 -44q97 13 176 44q32 -2 44 -29l-15 -44l-29 -191l29 -44l-15 -321l-14 -44l14 -44l-14 -147l14 -58l59 -73h44l44 -15l117 15q111 56 147 161l-15 58l15 249l-15 44l15 249l-15 44l15 219q138 -1 248 -29l74 59v44l14 44l-14 102q-26 54 -59 87 l-205 16l-58 -16l-264 16l-147 -16l-131 30q-146 -51 -176 -176zM298 1153l15 44h29l-15 -44h-29zM547 187l15 73q46 -24 58 -59zM547 377l44 73q24 -14 29 -29l-29 -73zM547 538l29 59l15 -59h-44zM781 1211q26 -11 30 -29q-25 10 -30 29z" />
<glyph unicode="u" horiz-adv-x="1271" d="M74 553q23 -116 29 -216l115 -130q63 -67 130 -115l172 -58l58 15l144 -29l187 58l144 100l101 130l29 216l-15 202l15 187q5 106 29 187l-29 173q-35 107 -130 129l-187 -43q-54 -66 -72 -144l-14 -14l14 -43l29 -576l-58 -173l-57 -43l-130 14q-59 66 -101 130l-14 201 l14 418l29 57l-29 144l-29 44l-129 -15l-43 15l-144 -29q-42 -85 -44 -173l15 -158l-15 -58l15 -158l-15 -58l15 -86zM218 438l29 100l29 -115zM261 1042q53 -16 72 -57q-49 19 -72 57zM477 265l58 -29q-35 5 -58 29zM823 265q32 -13 43 -43q-33 13 -43 43zM924 481l14 29 h14v-29h-28zM967 1230l57 -29q-34 3 -57 29zM981 625q39 -32 43 -72q-36 34 -43 72zM981 826l87 -43q-49 14 -87 43zM981 898l15 44h28l-14 -44h-29zM981 1086l15 43h14v-43h-29z" />
<glyph unicode="v" horiz-adv-x="1055" d="M-70 1274l44 -176l74 -161q17 -106 44 -176q26 -94 58 -162l102 -308q24 -89 30 -176l117 -102l205 15q96 26 162 73l87 352l74 162l44 160q39 76 58 147l30 161l58 162q23 49 30 102l-74 30h-220q-77 -35 -131 -88l-30 -176q-40 -87 -58 -162l-44 -380l-44 -74l-59 249 q-29 87 -44 176l-59 176l-14 176q-55 63 -118 103l-220 14q-63 -54 -102 -117zM150 1215l74 -44q-48 12 -74 44zM180 1098l72 -15l-28 -14zM238 849q38 -29 44 -74q-30 32 -44 74zM282 703h29l-15 -44zM414 351q21 50 58 88l59 -118q23 -48 29 -88l-58 -14zM560 423 q49 -22 74 -58q-56 11 -74 58z" />
<glyph unicode="w" horiz-adv-x="1533" d="M-69 1195l156 -566q12 -83 42 -156l28 -142l100 -269l141 -42l156 28l99 86l14 169l43 142l14 169l42 142l-13 42l13 100q35 -75 43 -142l14 -170l71 -297l14 -155q43 -54 99 -86l42 -28l100 14q72 5 128 28q45 60 56 128q35 81 42 156l29 141l57 127l141 596l28 28 l-42 84q-76 31 -142 43l-169 -14q-51 -52 -72 -113l-70 -666v-70q-30 26 -43 56l-43 312l-42 141l-14 142l-43 141q-55 34 -113 43l-141 14q-63 -19 -99 -71l-43 -142l-14 -127l-43 -141l-14 -170l-14 -43l28 -99l-42 -43l-57 29q-25 13 -28 28q33 44 43 85l-43 297l-14 28 l14 114q-30 73 -42 142l-71 127l-170 14l-113 -57q-37 -59 -43 -127zM200 813q23 -15 29 -43zM271 374q5 71 28 128l14 -100l57 -84zM398 318h15v-43zM427 318h14v-29zM455 331h14v-28zM540 402l14 28h15v-28h-29zM710 969l71 169l42 -70l-70 -114zM724 1210l29 -43 q-23 15 -29 43zM979 374l42 56h85l15 -28l-29 -56zM1135 261l37 27l33 -27l-28 -43zM1333 870v84l28 -14zM1347 1096q26 -32 28 -70q-24 33 -28 70z" />
<glyph unicode="x" horiz-adv-x="1208" d="M-57 123l29 -71l43 -14l102 14l115 -29l101 29q89 62 130 144l130 289q44 -14 72 -43q37 -110 87 -203l130 -216h187l44 -15v15h130l29 57q-15 102 -72 174l-347 462q28 92 72 173l144 130q43 98 102 173q32 48 43 102l-72 57l-44 15l-201 -15q-113 -32 -160 -116 l-72 -201l-14 -73q-50 57 -73 101l-86 203q-93 58 -188 86l-246 29l-71 -72l28 -102l130 -144l101 -173l145 -130l-347 -462q-66 -84 -101 -174zM261 326l14 28h14v-28h-28zM318 1120h15v-29zM362 1091q23 -14 29 -43zM377 326q23 -14 28 -29q-24 10 -28 29zM391 485l29 72 l29 -15v-86zM477 658l29 -44q-22 16 -29 44zM492 889l14 72q26 -11 29 -29zM608 759l43 -43q34 -68 43 -130q-50 14 -57 57q-25 58 -29 116zM853 1091l44 -43q-34 14 -44 43zM925 1163q21 48 58 72zM1069 196q24 -14 29 -43q-21 13 -29 43z" />
<glyph unicode="y" horiz-adv-x="1131" d="M-74 1229l88 -117l102 -102l234 -365l29 -88l-29 -44l29 -175l-29 -176q37 -62 88 -116l175 -30l147 58l28 44l-14 117l-14 44l14 131l-30 161q36 79 74 132l73 131l175 220l102 102q34 73 44 131q-66 35 -131 44l-161 15q-81 -20 -146 -59q-47 -64 -74 -131l-72 -131 q-29 -48 -73 -74l-59 147l-160 248l-176 29h-44l-29 -14l-102 14q-41 -78 -59 -146zM306 1098l44 -59q-32 24 -44 59zM336 951l14 44h14v-44h-28zM481 396l59 73q43 -38 59 -87l-15 -16l15 -72zM496 615l29 44l-14 103q53 -64 73 -147h-88zM628 776l58 -30q-35 7 -58 30z M760 981l14 29l29 -15l-15 -29zM803 907h15v-29z" />
<glyph unicode="z" horiz-adv-x="1279" d="M57 255q25 -95 73 -174q96 -33 188 -43h506l59 14l159 -29q80 30 130 87l15 43l-15 188l-29 29h-260l-44 -14l-116 14q-102 3 -188 30q90 44 159 101l130 116l232 260q74 63 131 131l-15 159l29 58q-59 96 -159 101l-203 15l-217 -15l-435 43q-53 -89 -72 -173 q12 -104 44 -188l43 -30l159 30l203 -15l188 58l-116 -145l-159 -87l-232 -275q-151 -133 -188 -289zM303 414q26 -9 29 -29q-24 9 -29 29zM332 240l43 130l73 -29q-21 -48 -58 -72zM332 1239q26 -11 29 -29q-26 11 -29 29zM463 255l28 -15l-14 -43zM520 515q32 -8 44 -29 q-30 9 -44 29zM636 240q26 -11 29 -29q-25 10 -29 29zM636 805q26 -11 29 -29q-26 9 -29 29zM795 964l73 73h58q-27 -39 -72 -59zM839 1123l44 -14l-15 -15q-24 10 -29 29zM940 1153q53 -23 73 -73q-45 34 -73 73z" />
<glyph unicode="{" horiz-adv-x="684" />
<glyph unicode="|" horiz-adv-x="532" />
<glyph unicode="}" horiz-adv-x="684" />
<glyph unicode="~" horiz-adv-x="1196" />
<glyph unicode="&#xa1;" horiz-adv-x="598" d="M90 1268l14 -168q74 -54 159 -76l201 25q22 87 28 168l15 128l-15 51q-77 35 -158 52l-158 -64q-61 -54 -86 -116zM104 168q29 -145 116 -226l287 97l-29 243v49l-29 49l29 272l-46 136l-48 119q-84 -18 -160 9l-55 -180l-65 -244l15 -64zM277 250q31 -10 43 -33 q-33 9 -43 33zM292 460v32l13 -32h-13z" />
<glyph unicode="&#xa2;" />
<glyph unicode="&#xa3;" />
<glyph unicode="&#xa5;" />
<glyph unicode="&#xa6;" horiz-adv-x="532" />
<glyph unicode="&#xa7;" />
<glyph unicode="&#xa8;" horiz-adv-x="531" d="M78 1590l27 -114q37 -33 87 -44l115 9q16 67 17 113v27l9 62l-9 26q-45 39 -97 52l-87 -52q-43 -37 -62 -79zM428 1597l18 -123q39 -36 87 -53l88 53q39 29 62 70l-18 123q-38 36 -88 53l-114 -18q-24 -59 -35 -105z" />
<glyph unicode="&#xa9;" horiz-adv-x="1509" />
<glyph unicode="&#xaa;" horiz-adv-x="758" />
<glyph unicode="&#xab;" />
<glyph unicode="&#xac;" horiz-adv-x="1196" />
<glyph unicode="&#xad;" horiz-adv-x="865" d="M94 794q4 -97 50 -164q136 -25 242 -26l89 13l89 -13l37 13q114 13 178 89q-5 117 -63 202l-102 13h-152v-13h-241q-92 -33 -127 -114z" />
<glyph unicode="&#xae;" horiz-adv-x="1509" />
<glyph unicode="&#xaf;" horiz-adv-x="682" />
<glyph unicode="&#xb0;" horiz-adv-x="819" />
<glyph unicode="&#xb1;" horiz-adv-x="1124" />
<glyph unicode="&#xb2;" horiz-adv-x="682" />
<glyph unicode="&#xb3;" horiz-adv-x="682" />
<glyph unicode="&#xb4;" horiz-adv-x="507" d="M56 1433l68 -73l33 -13l136 86q55 41 117 103l35 47q28 47 22 133q-110 79 -156 80q-48 2 -83 -35l-6 -24l-13 -32l-116 -144q-26 -55 -37 -128z" />
<glyph unicode="&#xb5;" horiz-adv-x="1180" />
<glyph unicode="&#xb6;" horiz-adv-x="1100" />
<glyph unicode="&#xb7;" horiz-adv-x="682" />
<glyph unicode="&#xb8;" horiz-adv-x="1178" d="M106 -183q3 -24 11 -54l50 -103l73 -71l105 8q46 14 90 55q30 34 61 87l5 31l-11 87l-11 15q-19 52 -50 102l-61 86q-28 44 -78 48h-23l-5 7l-11 -7h-11l-23 -56l45 -109q28 -34 61 -86l22 -63l-27 -31q-45 17 -73 70l-44 31l-50 -7z" />
<glyph unicode="&#xb9;" horiz-adv-x="682" />
<glyph unicode="&#xba;" horiz-adv-x="748" />
<glyph unicode="&#xbb;" />
<glyph unicode="&#xbc;" horiz-adv-x="1708" />
<glyph unicode="&#xbd;" horiz-adv-x="1708" />
<glyph unicode="&#xbe;" horiz-adv-x="1708" />
<glyph unicode="&#xbf;" horiz-adv-x="1178" d="M85 314l14 -56q77 -92 156 -156q114 -78 227 -100l269 -14l185 128l128 185q22 48 28 99l-113 71l-128 14l-113 -57q-76 -99 -185 -127l-71 57l57 113q77 87 156 156l113 199l-57 100h-28l-28 13l-14 -13h-57q-128 -9 -199 -86l-156 -156q-73 -83 -128 -185l-28 -28z M269 499q26 -26 29 -57zM326 329q33 -27 42 -71q-31 30 -42 71zM415 1228l43 -156l28 -29q63 1 113 14l156 -28q36 75 43 142l14 156q-69 50 -141 71l-185 -28q-47 -74 -71 -142zM454 712l42 -28q-31 7 -42 28zM808 244q25 -11 29 -29q-26 11 -29 29z" />
<glyph unicode="&#xc0;" horiz-adv-x="1154" d="M-79 141q41 -62 86 -100l157 -29l143 43l72 115q38 63 100 85h187l29 -13l56 28l29 -15q3 -75 34 -150q48 -51 100 -71l43 -14v14h129l114 71l24 50l-29 100l-56 130q-34 73 -44 143l-72 114l-42 144l-58 114l-71 258q-26 74 -57 129l-115 71q-84 25 -172 29l-129 -43 q-47 -62 -72 -129l-56 -114l-129 -415l-72 -130l-15 -158zM122 213l28 42q25 -9 29 -28zM265 671l57 -43q-38 12 -57 43zM279 814q72 -40 115 -100q-78 34 -115 100zM379 1130l72 -58q-49 19 -72 58zM379 1786q-6 -86 22 -133l5 -24l102 -117q62 -62 117 -103l22 -9l33 13 l68 73q-11 73 -37 128l-82 152l-13 32l-6 24q-33 38 -100 30t-131 -66zM423 485q24 -16 28 -43q-25 16 -28 43zM436 929l29 114q29 -56 29 -114h-58zM494 570l14 101q38 121 43 229q53 -87 86 -172l29 -129q-13 -30 -43 -43zM494 1201l57 14l28 -43l-28 -28q-41 26 -57 57z M666 1130h85l-56 -29q-26 9 -29 29zM737 442q62 -65 86 -144zM795 528v71h57zM795 843q33 -14 43 -43q-30 18 -43 43zM866 742l14 44h15v-44h-29zM880 642q26 -9 29 -28q-25 11 -29 28zM938 270q25 -10 29 -28q-25 9 -29 28zM967 370q25 -9 28 -28q-23 14 -28 28z" />
<glyph unicode="&#xc1;" horiz-adv-x="1154" d="M-79 141q41 -62 86 -100l157 -29l143 43l72 115q38 63 100 85h187l29 -13l56 28l29 -15q3 -75 34 -150q48 -51 100 -71l43 -14v14h129l114 71l24 50l-29 100l-56 130q-34 73 -44 143l-72 114l-42 144l-58 114l-71 258q-26 74 -57 129l-115 71q-84 25 -172 29l-129 -43 q-47 -62 -72 -129l-56 -114l-129 -415l-72 -130l-15 -158zM122 213l28 42q25 -9 29 -28zM265 671l57 -43q-38 12 -57 43zM279 814q72 -40 115 -100q-78 34 -115 100zM379 1130l72 -58q-49 19 -72 58zM423 485q24 -16 28 -43q-25 16 -28 43zM426 1483l68 -73l33 -13l136 86 q55 41 117 103l35 47q28 47 22 133q-110 79 -156 80q-48 2 -83 -35l-6 -24l-13 -32l-116 -144q-26 -55 -37 -128zM436 929l29 114q29 -56 29 -114h-58zM494 570l14 101q38 121 43 229q53 -87 86 -172l29 -129q-13 -30 -43 -43zM494 1201l57 14l28 -43l-28 -28q-41 26 -57 57 zM666 1130h85l-56 -29q-26 9 -29 29zM737 442q62 -65 86 -144zM795 528v71h57zM795 843q33 -14 43 -43q-30 18 -43 43zM866 742l14 44h15v-44h-29zM880 642q26 -9 29 -28q-25 11 -29 28zM938 270q25 -10 29 -28q-25 9 -29 28zM967 370q25 -9 28 -28q-23 14 -28 28z" />
<glyph unicode="&#xc2;" horiz-adv-x="1154" d="M-79 141q41 -62 86 -100l157 -29l143 43l72 115q38 63 100 85h187l29 -13l56 28l29 -15q3 -75 34 -150q48 -51 100 -71l43 -14v14h129l114 71l24 50l-29 100l-56 130q-34 73 -44 143l-72 114l-42 144l-58 114l-71 258q-26 74 -57 129l-115 71q-84 25 -172 29l-129 -43 q-47 -62 -72 -129l-56 -114l-129 -415l-72 -130l-15 -158zM122 213l28 42q25 -9 29 -28zM265 671l57 -43q-38 12 -57 43zM279 814q72 -40 115 -100q-78 34 -115 100zM316 1450l2 -24l27 -22l97 -25q57 42 95 92l44 140q21 -66 28 -97l83 -122l33 -23l105 65l3 143l-66 140 l-36 48v34l-41 54q-46 -10 -128 -9l-57 6q-52 -41 -80 -87l-19 -16l-55 -145q-25 -84 -35 -152zM379 1130l72 -58q-49 19 -72 58zM423 485q24 -16 28 -43q-25 16 -28 43zM436 929l29 114q29 -56 29 -114h-58zM494 570l14 101q38 121 43 229q53 -87 86 -172l29 -129 q-13 -30 -43 -43zM494 1201l57 14l28 -43l-28 -28q-41 26 -57 57zM666 1130h85l-56 -29q-26 9 -29 29zM737 442q62 -65 86 -144zM795 528v71h57zM795 843q33 -14 43 -43q-30 18 -43 43zM866 742l14 44h15v-44h-29zM880 642q26 -9 29 -28q-25 11 -29 28zM938 270 q25 -10 29 -28q-25 9 -29 28zM967 370q25 -9 28 -28q-23 14 -28 28z" />
<glyph unicode="&#xc3;" horiz-adv-x="1154" d="M-79 141q41 -62 86 -100l157 -29l143 43l72 115q38 63 100 85h187l29 -13l56 28l29 -15q3 -75 34 -150q48 -51 100 -71l43 -14v14h129l114 71l24 50l-29 100l-56 130q-34 73 -44 143l-72 114l-42 144l-58 114l-71 258q-26 74 -57 129l-115 71q-84 25 -172 29l-129 -43 q-47 -62 -72 -129l-56 -114l-129 -415l-72 -130l-15 -158zM122 213l28 42q25 -9 29 -28zM223 1587l3 -104l105 -48l33 17l83 89q8 27 28 71v-1l44 -101q35 -35 95 -68l5 1q1 -1 5 -3l28 18q76 1 128 -7l42 39v25l35 35l95 90l-3 104l-105 48l-33 -17l-83 -89q-7 -23 -28 -70 l-44 101q-35 35 -95 68l-5 -1q-1 1 -5 3l-57 -5q-81 -1 -162 20l-41 -39l-2 -25v-48zM265 671l57 -43q-38 12 -57 43zM279 814q72 -40 115 -100q-78 34 -115 100zM379 1130l72 -58q-49 19 -72 58zM423 485q24 -16 28 -43q-25 16 -28 43zM436 929l29 114q29 -56 29 -114h-58z M494 570l14 101q38 121 43 229q53 -87 86 -172l29 -129q-13 -30 -43 -43zM494 1201l57 14l28 -43l-28 -28q-41 26 -57 57zM666 1130h85l-56 -29q-26 9 -29 29zM737 442q62 -65 86 -144zM795 528v71h57zM795 843q33 -14 43 -43q-30 18 -43 43zM866 742l14 44h15v-44h-29z M880 642q26 -9 29 -28q-25 11 -29 28zM938 270q25 -10 29 -28q-25 9 -29 28zM967 370q25 -9 28 -28q-23 14 -28 28z" />
<glyph unicode="&#xc4;" horiz-adv-x="1154" d="M-79 141q41 -62 86 -100l157 -29l143 43l72 115q38 63 100 85h187l29 -13l56 28l29 -15q3 -75 34 -150q48 -51 100 -71l43 -14v14h129l114 71l24 50l-29 100l-56 130q-34 73 -44 143l-72 114l-42 144l-58 114l-71 258q-26 74 -57 129l-115 71q-84 25 -172 29l-129 -43 q-47 -62 -72 -129l-56 -114l-129 -415l-72 -130l-15 -158zM10 1338l27 -114q37 -33 87 -44l115 9q16 67 17 113v27l9 62l-9 26q-45 39 -97 52l-87 -52q-43 -37 -62 -79zM122 213l28 42q25 -9 29 -28zM265 671l57 -43q-38 12 -57 43zM279 814q72 -40 115 -100 q-78 34 -115 100zM379 1130l72 -58q-49 19 -72 58zM423 485q24 -16 28 -43q-25 16 -28 43zM436 929l29 114q29 -56 29 -114h-58zM494 570l14 101q38 121 43 229q53 -87 86 -172l29 -129q-13 -30 -43 -43zM494 1201l57 14l28 -43l-28 -28q-41 26 -57 57zM666 1130h85l-56 -29 q-26 9 -29 29zM737 442q62 -65 86 -144zM795 528v71h57zM795 843q33 -14 43 -43q-30 18 -43 43zM863 1344l18 -123q39 -36 87 -53l88 53q39 29 62 70l-18 123q-38 36 -88 53l-114 -18q-24 -59 -35 -105zM866 742l14 44h15v-44h-29zM880 642q26 -9 29 -28q-25 11 -29 28z M938 270q25 -10 29 -28q-25 9 -29 28zM967 370q25 -9 28 -28q-23 14 -28 28z" />
<glyph unicode="&#xc5;" horiz-adv-x="1366" />
<glyph unicode="&#xc6;" horiz-adv-x="2048" />
<glyph unicode="&#xc7;" horiz-adv-x="1292" d="M93 593l14 196l-14 112l14 28l14 42l70 155l112 112l140 84l168 56q87 -6 183 -28l182 -43q60 -51 112 -112l112 -125q-16 -72 -69 -141q-63 -50 -140 -84q-72 29 -141 84l-126 98l-154 -70q-56 -55 -99 -126l-13 -112l13 -42v-43l56 -168l141 -84q84 12 168 56l112 112 q74 -7 155 -41q59 -50 112 -127q-30 -65 -84 -140l-127 -112l-140 -84l-135 -12l42 -60q31 -50 50 -102l11 -15l11 -87l-5 -31q-31 -53 -61 -87q-44 -41 -90 -55l-105 -8l-73 71l-50 103q-8 30 -11 54l45 40l50 7l44 -31q28 -53 73 -70l27 31l-22 63q-33 52 -61 86l-41 99 l-92 18l-154 70l-196 267zM233 747h28v42h-14zM261 705q25 -24 56 -28zM275 565h28v56h-14zM289 929q0 -22 28 -28q25 40 42 98q-11 21 -42 28zM317 509q13 -51 57 -84q-3 53 -57 84zM387 242q49 19 84 56q-44 -18 -84 -56zM555 1223q40 4 43 43zM570 1126q2 -30 28 -43z M611 242l28 14l-28 14v-28zM752 242q19 -28 56 -42q44 35 112 56q-5 37 -42 56zM794 1182q5 -33 28 -56l14 56h-42zM878 1083l57 43l-29 41z" />
<glyph unicode="&#xc8;" horiz-adv-x="1199" d="M81 295l14 -160q66 -80 146 -116l203 30q102 1 204 28l218 -28l44 -15l159 15q47 95 58 188l-28 160l-44 29l-407 -29q-92 7 -174 44q8 103 72 174l204 -58l217 14q48 77 73 160l15 117l-73 57l-43 16l-436 -30l-44 146l436 -15l29 -14l102 14l43 73l15 43l-15 160 q-73 56 -159 73l-44 -14l-189 14l-218 -14l-232 28q-74 -52 -117 -116l-15 -247l15 -204l-15 -247v-87l15 -29l-15 -116zM212 426q48 -20 58 -58q-45 21 -58 58zM241 818l29 -14l-15 -29zM255 222q34 -12 44 -43zM255 571q29 -27 29 -58q-27 26 -29 58zM270 862l44 -14 l-15 -15q-25 11 -29 29zM299 513h15v-29zM299 978l44 87q-8 -54 -44 -87zM328 761l29 -15l-14 -29zM371 382q27 -9 30 -29q-25 10 -30 29zM387 237l57 72q-2 -65 -29 -116zM407 1786q-6 -86 22 -133l5 -24l102 -117q62 -62 117 -103l22 -9l33 13l68 73q-11 73 -37 128 l-82 152l-13 32l-6 24q-33 38 -100 30t-131 -66zM604 252l73 -30l-58 -29zM735 1254q47 -33 72 -72q-53 27 -72 72zM750 208l43 58q-6 -42 -43 -58z" />
<glyph unicode="&#xc9;" horiz-adv-x="1199" d="M81 295l14 -160q66 -80 146 -116l203 30q102 1 204 28l218 -28l44 -15l159 15q47 95 58 188l-28 160l-44 29l-407 -29q-92 7 -174 44q8 103 72 174l204 -58l217 14q48 77 73 160l15 117l-73 57l-43 16l-436 -30l-44 146l436 -15l29 -14l102 14l43 73l15 43l-15 160 q-73 56 -159 73l-44 -14l-189 14l-218 -14l-232 28q-74 -52 -117 -116l-15 -247l15 -204l-15 -247v-87l15 -29l-15 -116zM212 426q48 -20 58 -58q-45 21 -58 58zM241 818l29 -14l-15 -29zM255 222q34 -12 44 -43zM255 571q29 -27 29 -58q-27 26 -29 58zM270 862l44 -14 l-15 -15q-25 11 -29 29zM299 513h15v-29zM299 978l44 87q-8 -54 -44 -87zM328 761l29 -15l-14 -29zM371 382q27 -9 30 -29q-25 10 -30 29zM387 237l57 72q-2 -65 -29 -116zM444 1482l68 -73l33 -13l136 86q55 41 117 103l35 47q28 47 22 133q-110 79 -156 80q-48 2 -83 -35 l-6 -24l-13 -32l-116 -144q-26 -55 -37 -128zM604 252l73 -30l-58 -29zM735 1254q47 -33 72 -72q-53 27 -72 72zM750 208l43 58q-6 -42 -43 -58z" />
<glyph unicode="&#xca;" horiz-adv-x="1199" d="M81 295l14 -160q66 -80 146 -116l203 30q102 1 204 28l218 -28l44 -15l159 15q47 95 58 188l-28 160l-44 29l-407 -29q-92 7 -174 44q8 103 72 174l204 -58l217 14q48 77 73 160l15 117l-73 57l-43 16l-436 -30l-44 146l436 -15l29 -14l102 14l43 73l15 43l-15 160 q-73 56 -159 73l-44 -14l-189 14l-218 -14l-232 28q-74 -52 -117 -116l-15 -247l15 -204l-15 -247v-87l15 -29l-15 -116zM212 426q48 -20 58 -58q-45 21 -58 58zM241 818l29 -14l-15 -29zM255 222q34 -12 44 -43zM255 571q29 -27 29 -58q-27 26 -29 58zM270 862l44 -14 l-15 -15q-25 11 -29 29zM299 513h15v-29zM299 978l44 87q-8 -54 -44 -87zM328 761l29 -15l-14 -29zM346 1460l2 -24l27 -22l97 -25q57 42 95 92l44 140q21 -66 28 -97l83 -122l33 -23l105 65l3 143l-66 140l-36 48v34l-41 54q-46 -10 -128 -9l-57 6q-52 -41 -80 -87l-19 -16 l-55 -145q-25 -84 -35 -152zM371 382q27 -9 30 -29q-25 10 -30 29zM387 237l57 72q-2 -65 -29 -116zM604 252l73 -30l-58 -29zM735 1254q47 -33 72 -72q-53 27 -72 72zM750 208l43 58q-6 -42 -43 -58z" />
<glyph unicode="&#xcb;" horiz-adv-x="1199" d="M81 295l14 -160q66 -80 146 -116l203 30q102 1 204 28l218 -28l44 -15l159 15q47 95 58 188l-28 160l-44 29l-407 -29q-92 7 -174 44q8 103 72 174l204 -58l217 14q48 77 73 160l15 117l-73 57l-43 16l-436 -30l-44 146l436 -15l29 -14l102 14l43 73l15 43l-15 160 q-73 56 -159 73l-44 -14l-189 14l-218 -14l-232 28q-74 -52 -117 -116l-15 -247l15 -204l-15 -247v-87l15 -29l-15 -116zM212 426q48 -20 58 -58q-45 21 -58 58zM241 818l29 -14l-15 -29zM255 222q34 -12 44 -43zM255 571q29 -27 29 -58q-27 26 -29 58zM270 862l44 -14 l-15 -15q-25 11 -29 29zM299 513h15v-29zM299 978l44 87q-8 -54 -44 -87zM302 1603l27 -114q37 -33 87 -44l115 9q16 67 17 113v27l9 62l-9 26q-45 39 -97 52l-87 -52q-43 -37 -62 -79zM328 761l29 -15l-14 -29zM371 382q27 -9 30 -29q-25 10 -30 29zM387 237l57 72 q-2 -65 -29 -116zM604 252l73 -30l-58 -29zM652 1610l18 -123q39 -36 87 -53l88 53q39 29 62 70l-18 123q-38 36 -88 53l-114 -18q-24 -59 -35 -105zM735 1254q47 -33 72 -72q-53 27 -72 72zM750 208l43 58q-6 -42 -43 -58z" />
<glyph unicode="&#xcc;" horiz-adv-x="598" d="M32 1785q-6 -86 22 -133l5 -24l102 -117q62 -62 117 -103l22 -9l33 13l68 73q-11 73 -37 128l-82 152l-13 32l-6 24q-33 38 -100 30t-131 -66zM81 367l30 -44l-16 -102l16 -132q93 -55 190 -73q109 4 190 58l29 44l-29 161l15 15h-15v29l15 103l-30 88l30 395l-30 58 l30 132l-15 220q-91 44 -190 73l-190 -58l-16 -44l30 -367l-14 -43l14 -190l-14 -205q-4 -65 -30 -118zM242 221l15 73l44 -15l-15 -73zM242 499l59 -29q-38 0 -59 29zM271 1114q32 -8 44 -29q-32 2 -44 29zM301 558h14v-30zM301 1231h43l-14 -44zM315 1173h15v-44z" />
<glyph unicode="&#xcd;" horiz-adv-x="598" d="M81 367l30 -44l-16 -102l16 -132q93 -55 190 -73q109 4 190 58l29 44l-29 161l15 15h-15v29l15 103l-30 88l30 395l-30 58l30 132l-15 220q-91 44 -190 73l-190 -58l-16 -44l30 -367l-14 -43l14 -190l-14 -205q-4 -65 -30 -118zM196 1487l68 -73l33 -13l136 86 q55 41 117 103l35 47q28 47 22 133q-110 79 -156 80q-48 2 -83 -35l-6 -24l-13 -32l-116 -144q-26 -55 -37 -128zM242 221l15 73l44 -15l-15 -73zM242 499l59 -29q-38 0 -59 29zM271 1114q32 -8 44 -29q-32 2 -44 29zM301 558h14v-30zM301 1231h43l-14 -44zM315 1173h15v-44 z" />
<glyph unicode="&#xce;" horiz-adv-x="598" d="M35 1455l2 -24l27 -22l97 -25q57 42 95 92l44 140q21 -66 28 -97l83 -122l33 -23l105 65l3 143l-66 140l-36 48v34l-41 54q-46 -10 -128 -9l-57 6q-52 -41 -80 -87l-19 -16l-55 -145q-25 -84 -35 -152zM81 367l30 -44l-16 -102l16 -132q93 -55 190 -73q109 4 190 58 l29 44l-29 161l15 15h-15v29l15 103l-30 88l30 395l-30 58l30 132l-15 220q-91 44 -190 73l-190 -58l-16 -44l30 -367l-14 -43l14 -190l-14 -205q-4 -65 -30 -118zM242 221l15 73l44 -15l-15 -73zM242 499l59 -29q-38 0 -59 29zM271 1114q32 -8 44 -29q-32 2 -44 29z M301 558h14v-30zM301 1231h43l-14 -44zM315 1173h15v-44z" />
<glyph unicode="&#xcf;" horiz-adv-x="598" d="M-9 1593l27 -114q37 -33 87 -44l115 9q16 67 17 113v27l9 62l-9 26q-45 39 -97 52l-87 -52q-43 -37 -62 -79zM81 367l30 -44l-16 -102l16 -132q93 -55 190 -73q109 4 190 58l29 44l-29 161l15 15h-15v29l15 103l-30 88l30 395l-30 58l30 132l-15 220q-91 44 -190 73 l-190 -58l-16 -44l30 -367l-14 -43l14 -190l-14 -205q-4 -65 -30 -118zM242 221l15 73l44 -15l-15 -73zM242 499l59 -29q-38 0 -59 29zM271 1114q32 -8 44 -29q-32 2 -44 29zM301 558h14v-30zM301 1231h43l-14 -44zM315 1173h15v-44zM341 1600l18 -123q39 -36 87 -53l88 53 q39 29 62 70l-18 123q-38 36 -88 53l-114 -18q-24 -59 -35 -105z" />
<glyph unicode="&#xd0;" horiz-adv-x="1479" />
<glyph unicode="&#xd1;" horiz-adv-x="1347" d="M74 1255q33 -142 44 -262l-15 -44l-15 -87l30 -263l-15 -131l15 -101l-15 -160q19 -115 88 -190l247 30l73 57l-30 437l-43 190l29 44l73 188l-59 44h88l-15 -87l-58 -204l102 -204q56 -97 117 -175q35 -123 87 -218q94 -76 203 -102l219 73l29 44l-14 276l14 44l-29 101 l15 44h-15v44l29 204l15 15h-15v29l-14 44l14 160q-3 145 -44 262l-58 29l-160 -15q-127 -24 -131 -145l-15 -44l44 -466v-88l-58 161l-320 568l-277 29q-107 -44 -160 -131zM220 512h72l-14 -44zM234 1051q30 -9 44 -29zM278 775l58 -44q-38 12 -58 44zM300 1597l3 -104 l105 -48l33 17l83 89q8 27 28 71v-1l44 -101q35 -35 95 -68l5 1q1 -1 5 -3l28 18q76 1 128 -7l42 39v25l35 35l95 90l-3 104l-105 48l-33 -17l-83 -89q-7 -23 -28 -70l-44 101q-35 35 -95 68l-5 -1q-1 1 -5 3l-57 -5q-81 -1 -162 20l-41 -39l-2 -25v-48zM307 352l58 -44 q-38 7 -58 44zM307 1211q128 -41 145 -160q-97 76 -145 160zM336 599h15v-28zM365 1036h15v-29zM438 935v43h58l-44 -43h-14zM685 628h117l14 -29l-14 -58q-69 42 -117 87zM860 381l29 58l59 -14zM875 585l29 43q-7 -29 -29 -43zM889 352q41 -30 59 -58q-46 21 -59 58z M962 1051l14 72l44 -14l-15 -58l-14 15zM976 818q25 -26 29 -59zM991 207q34 31 73 43q-25 -39 -73 -43zM1020 687l73 -29q-41 3 -73 29zM1108 891l43 -15l-15 -14q-23 9 -28 29z" />
<glyph unicode="&#xd2;" horiz-adv-x="1461" d="M91 552l83 -264q98 -92 181 -153q121 -77 237 -111l305 14q129 68 209 125l167 181q52 141 70 278l-14 56q6 82 28 152l-84 237q-77 119 -167 181q-124 72 -236 97l-97 28h-223l-209 -125l-167 -181q-58 -136 -69 -250zM230 956h42l-14 -42q-22 15 -28 42zM258 580l14 42 h13v-28zM258 775l27 70q36 -37 43 -84l-28 -14zM300 399l13 56l28 -14zM383 538h14v-28zM383 1025h56l-28 -55q-22 23 -28 55zM425 1150l56 -28q-32 4 -56 28zM465 1781q-6 -86 22 -133l5 -24l102 -117q62 -62 117 -103l22 -9l33 13l68 73q-11 73 -37 128l-82 152l-13 32 l-6 24q-33 38 -100 30t-131 -66zM466 706l28 180l181 139q119 -33 209 -83q62 -92 69 -181q-10 -140 -41 -236q-69 -91 -167 -126q-126 20 -209 98q-62 107 -70 209zM466 1053q25 -9 28 -28q-25 9 -28 28zM592 191l28 69l41 -55l-28 -28zM758 149v42q22 43 56 69 q38 -26 42 -69l-55 -28zM939 1164l139 -125q-112 25 -139 125zM1037 497q23 -14 28 -28q-25 9 -28 28zM1065 580l69 56h55l-83 -56l14 -111q-38 57 -55 111zM1093 775q24 -9 27 -28q-23 11 -27 28zM1148 817l41 -15l-13 -13q-24 9 -28 28z" />
<glyph unicode="&#xd3;" horiz-adv-x="1461" d="M91 552l83 -264q98 -92 181 -153q121 -77 237 -111l305 14q129 68 209 125l167 181q52 141 70 278l-14 56q6 82 28 152l-84 237q-77 119 -167 181q-124 72 -236 97l-97 28h-223l-209 -125l-167 -181q-58 -136 -69 -250zM230 956h42l-14 -42q-22 15 -28 42zM258 580l14 42 h13v-28zM258 775l27 70q36 -37 43 -84l-28 -14zM300 399l13 56l28 -14zM383 538h14v-28zM383 1025h56l-28 -55q-22 23 -28 55zM425 1150l56 -28q-32 4 -56 28zM466 706l28 180l181 139q119 -33 209 -83q62 -92 69 -181q-10 -140 -41 -236q-69 -91 -167 -126q-126 20 -209 98 q-62 107 -70 209zM466 1053q25 -9 28 -28q-25 9 -28 28zM592 191l28 69l41 -55l-28 -28zM612 1487l68 -73l33 -13l136 86q55 41 117 103l35 47q28 47 22 133q-110 79 -156 80q-48 2 -83 -35l-6 -24l-13 -32l-116 -144q-26 -55 -37 -128zM758 149v42q22 43 56 69 q38 -26 42 -69l-55 -28zM939 1164l139 -125q-112 25 -139 125zM1037 497q23 -14 28 -28q-25 9 -28 28zM1065 580l69 56h55l-83 -56l14 -111q-38 57 -55 111zM1093 775q24 -9 27 -28q-23 11 -27 28zM1148 817l41 -15l-13 -13q-24 9 -28 28z" />
<glyph unicode="&#xd4;" horiz-adv-x="1461" d="M91 552l83 -264q98 -92 181 -153q121 -77 237 -111l305 14q129 68 209 125l167 181q52 141 70 278l-14 56q6 82 28 152l-84 237q-77 119 -167 181q-124 72 -236 97l-97 28h-223l-209 -125l-167 -181q-58 -136 -69 -250zM230 956h42l-14 -42q-22 15 -28 42zM258 580l14 42 h13v-28zM258 775l27 70q36 -37 43 -84l-28 -14zM300 399l13 56l28 -14zM383 538h14v-28zM383 1025h56l-28 -55q-22 23 -28 55zM425 1150l56 -28q-32 4 -56 28zM435 1455l2 -24l27 -22l97 -25q57 42 95 92l44 140q21 -66 28 -97l83 -122l33 -23l105 65l3 143l-66 140l-36 48 v34l-41 54q-46 -10 -128 -9l-57 6q-52 -41 -80 -87l-19 -16l-55 -145q-25 -84 -35 -152zM466 706l28 180l181 139q119 -33 209 -83q62 -92 69 -181q-10 -140 -41 -236q-69 -91 -167 -126q-126 20 -209 98q-62 107 -70 209zM466 1053q25 -9 28 -28q-25 9 -28 28zM592 191 l28 69l41 -55l-28 -28zM758 149v42q22 43 56 69q38 -26 42 -69l-55 -28zM939 1164l139 -125q-112 25 -139 125zM1037 497q23 -14 28 -28q-25 9 -28 28zM1065 580l69 56h55l-83 -56l14 -111q-38 57 -55 111zM1093 775q24 -9 27 -28q-23 11 -27 28zM1148 817l41 -15l-13 -13 q-24 9 -28 28z" />
<glyph unicode="&#xd5;" horiz-adv-x="1461" d="M91 552l83 -264q98 -92 181 -153q121 -77 237 -111l305 14q129 68 209 125l167 181q52 141 70 278l-14 56q6 82 28 152l-84 237q-77 119 -167 181q-124 72 -236 97l-97 28h-223l-209 -125l-167 -181q-58 -136 -69 -250zM230 956h42l-14 -42q-22 15 -28 42zM258 580l14 42 h13v-28zM258 775l27 70q36 -37 43 -84l-28 -14zM300 399l13 56l28 -14zM348 1602l3 -104l105 -48l33 17l83 89q8 27 28 71v-1l44 -101q35 -35 95 -68l5 1q1 -1 5 -3l28 18q76 1 128 -7l42 39v25l35 35l95 90l-3 104l-105 48l-33 -17l-83 -89q-7 -23 -28 -70l-44 101 q-35 35 -95 68l-5 -1q-1 1 -5 3l-57 -5q-81 -1 -162 20l-41 -39l-2 -25v-48zM383 538h14v-28zM383 1025h56l-28 -55q-22 23 -28 55zM425 1150l56 -28q-32 4 -56 28zM466 706l28 180l181 139q119 -33 209 -83q62 -92 69 -181q-10 -140 -41 -236q-69 -91 -167 -126 q-126 20 -209 98q-62 107 -70 209zM466 1053q25 -9 28 -28q-25 9 -28 28zM592 191l28 69l41 -55l-28 -28zM758 149v42q22 43 56 69q38 -26 42 -69l-55 -28zM939 1164l139 -125q-112 25 -139 125zM1037 497q23 -14 28 -28q-25 9 -28 28zM1065 580l69 56h55l-83 -56l14 -111 q-38 57 -55 111zM1093 775q24 -9 27 -28q-23 11 -27 28zM1148 817l41 -15l-13 -13q-24 9 -28 28z" />
<glyph unicode="&#xd6;" horiz-adv-x="1461" d="M21 1352l27 -114q37 -33 87 -44l115 9q16 67 17 113v27l9 62l-9 26q-45 39 -97 52l-87 -52q-43 -37 -62 -79zM91 552l83 -264q98 -92 181 -153q121 -77 237 -111l305 14q129 68 209 125l167 181q52 141 70 278l-14 56q6 82 28 152l-84 237q-77 119 -167 181 q-124 72 -236 97l-97 28h-223l-209 -125l-167 -181q-58 -136 -69 -250zM230 956h42l-14 -42q-22 15 -28 42zM258 580l14 42h13v-28zM258 775l27 70q36 -37 43 -84l-28 -14zM300 399l13 56l28 -14zM383 538h14v-28zM383 1025h56l-28 -55q-22 23 -28 55zM425 1150l56 -28 q-32 4 -56 28zM466 706l28 180l181 139q119 -33 209 -83q62 -92 69 -181q-10 -140 -41 -236q-69 -91 -167 -126q-126 20 -209 98q-62 107 -70 209zM466 1053q25 -9 28 -28q-25 9 -28 28zM592 191l28 69l41 -55l-28 -28zM758 149v42q22 43 56 69q38 -26 42 -69l-55 -28z M939 1164l139 -125q-112 25 -139 125zM1037 497q23 -14 28 -28q-25 9 -28 28zM1065 580l69 56h55l-83 -56l14 -111q-38 57 -55 111zM1093 775q24 -9 27 -28q-23 11 -27 28zM1148 817l41 -15l-13 -13q-24 9 -28 28zM1172 1354l18 -123q39 -36 87 -53l88 53q39 29 62 70 l-18 123q-38 36 -88 53l-114 -18q-24 -59 -35 -105z" />
<glyph unicode="&#xd7;" horiz-adv-x="1196" />
<glyph unicode="&#xd8;" horiz-adv-x="1593" />
<glyph unicode="&#xd9;" horiz-adv-x="1305" d="M98 668l43 -360q58 -78 115 -131l131 -115l201 -28l44 -15l58 30l72 -15l187 57l131 115q52 62 86 131q26 118 29 216l14 57l-29 145l15 216q-7 64 -29 115l43 43l15 160l-15 57q-106 34 -202 43l-173 -57l-29 -43l-14 -29l29 -102l-15 -187l15 -58l-15 -158l15 -217 q-23 -95 -72 -158l-44 -15l-144 29q-45 78 -58 144l-14 231l28 520l-72 57q-105 30 -202 43l-144 -86q0 -125 14 -231l-14 -159v-245zM242 928l29 86l44 -43l-29 -72zM286 610l29 58l14 -15v-57zM315 524q25 -10 29 -29q-24 14 -29 29zM358 409q24 -15 29 -29q-24 9 -29 29z M396 1775q-6 -86 22 -133l5 -24l102 -117q62 -62 117 -103l22 -9l33 13l68 73q-11 73 -37 128l-82 152l-13 32l-6 24q-33 38 -100 30t-131 -66zM401 351h15v-43zM545 221q26 -11 29 -29q-25 11 -29 29zM964 1057h14v-43zM978 625h14v-44zM978 639l29 145l58 -87l-58 -29 q-11 -26 -29 -29zM1021 1101q25 -15 30 -29q-26 11 -30 29z" />
<glyph unicode="&#xda;" horiz-adv-x="1305" d="M98 668l43 -360q58 -78 115 -131l131 -115l201 -28l44 -15l58 30l72 -15l187 57l131 115q52 62 86 131q26 118 29 216l14 57l-29 145l15 216q-7 64 -29 115l43 43l15 160l-15 57q-106 34 -202 43l-173 -57l-29 -43l-14 -29l29 -102l-15 -187l15 -58l-15 -158l15 -217 q-23 -95 -72 -158l-44 -15l-144 29q-45 78 -58 144l-14 231l28 520l-72 57q-105 30 -202 43l-144 -86q0 -125 14 -231l-14 -159v-245zM242 928l29 86l44 -43l-29 -72zM286 610l29 58l14 -15v-57zM315 524q25 -10 29 -29q-24 14 -29 29zM358 409q24 -15 29 -29q-24 9 -29 29z M401 351h15v-43zM545 221q26 -11 29 -29q-25 11 -29 29zM550 1483l68 -73l33 -13l136 86q55 41 117 103l35 47q28 47 22 133q-110 79 -156 80q-48 2 -83 -35l-6 -24l-13 -32l-116 -144q-26 -55 -37 -128zM964 1057h14v-43zM978 625h14v-44zM978 639l29 145l58 -87l-58 -29 q-11 -26 -29 -29zM1021 1101q25 -15 30 -29q-26 11 -30 29z" />
<glyph unicode="&#xdb;" horiz-adv-x="1305" d="M98 668l43 -360q58 -78 115 -131l131 -115l201 -28l44 -15l58 30l72 -15l187 57l131 115q52 62 86 131q26 118 29 216l14 57l-29 145l15 216q-7 64 -29 115l43 43l15 160l-15 57q-106 34 -202 43l-173 -57l-29 -43l-14 -29l29 -102l-15 -187l15 -58l-15 -158l15 -217 q-23 -95 -72 -158l-44 -15l-144 29q-45 78 -58 144l-14 231l28 520l-72 57q-105 30 -202 43l-144 -86q0 -125 14 -231l-14 -159v-245zM242 928l29 86l44 -43l-29 -72zM286 610l29 58l14 -15v-57zM315 524q25 -10 29 -29q-24 14 -29 29zM358 409q24 -15 29 -29q-24 9 -29 29z M390 1450l2 -24l27 -22l97 -25q57 42 95 92l44 140q21 -66 28 -97l83 -122l33 -23l105 65l3 143l-66 140l-36 48v34l-41 54q-46 -10 -128 -9l-57 6q-52 -41 -80 -87l-19 -16l-55 -145q-25 -84 -35 -152zM401 351h15v-43zM545 221q26 -11 29 -29q-25 11 -29 29zM964 1057h14 v-43zM978 625h14v-44zM978 639l29 145l58 -87l-58 -29q-11 -26 -29 -29zM1021 1101q25 -15 30 -29q-26 11 -30 29z" />
<glyph unicode="&#xdc;" horiz-adv-x="1305" d="M74 553q23 -116 29 -216l115 -130q63 -67 130 -115l172 -58l58 15l144 -29l187 58l144 100l101 130l29 216l-15 202l15 187q5 106 29 187l-29 173q-35 107 -130 129l-187 -43q-54 -66 -72 -144l-14 -14l14 -43l29 -576l-58 -173l-57 -43l-130 14q-59 66 -101 130l-14 201 l14 418l29 57l-29 144l-29 44l-129 -15l-43 15l-144 -29q-42 -85 -44 -173l15 -158l-15 -58l15 -158l-15 -58l15 -86zM218 438l29 100l29 -115zM261 1042q53 -16 72 -57q-49 19 -72 57zM477 265l58 -29q-35 5 -58 29zM544 989l21 -89q29 -26 68 -34l90 7q12 55 13 88v21 l7 48l-7 21q-36 30 -76 40l-68 -40q-35 -31 -48 -62zM557 1287l14 -96q29 -27 68 -42l68 42q31 22 49 54l-14 96q-31 29 -69 41l-89 -14q-19 -49 -27 -81zM823 265q32 -13 43 -43q-33 13 -43 43zM924 481l14 29h14v-29h-28zM967 1230l57 -29q-34 3 -57 29zM981 625 q39 -32 43 -72q-36 34 -43 72zM981 826l87 -43q-49 14 -87 43zM981 898l15 44h28l-14 -44h-29zM981 1086l15 43h14v-43h-29z" />
<glyph unicode="&#xdd;" horiz-adv-x="1366" />
<glyph unicode="&#xde;" horiz-adv-x="1366" />
<glyph unicode="&#xdf;" horiz-adv-x="1273" d="M95 186q32 -110 118 -162l219 -14q67 88 73 176l15 44l-29 190l14 88l-25 312q10 171 113 227l161 20l49 -100l-19 -97q-90 10 -161 -38q-51 -68 -54 -199q68 -86 172 -100q72 -56 114 -130l-67 -42q-62 -21 -135 -26q-75 -15 -60 -309l80 -25l301 58q87 47 158 100 q57 73 53 151l29 57l-19 73q12 79 -38 136l-87 158l49 219l28 143l-28 57l-74 120l-186 87l-43 18l-240 17l2 -7l-49 5q-359 -46 -404 -374v-145l-30 -58l14 -147l-14 -44l14 -205zM227 479q62 -45 102 -103q-61 47 -102 103zM355 127l73 29l-44 -73q-24 15 -29 44z M388 1211q39 -35 59 -88q-42 32 -59 88zM530 1187l62 128q6 -26 12 -53t9 -41t4 -19l-58 -57zM884 647l29 72q-3 -38 -29 -72zM902 1249h15v-43zM905 147l15 74l103 -15q-24 -67 -103 -73zM943 953q69 -26 82 -73q-69 26 -82 73zM970 547q86 -71 86 -172q-77 71 -86 172z M976 1106q81 -53 85 -119q-82 55 -85 119z" />
<glyph unicode="&#xe0;" horiz-adv-x="1130" d="M-69 123l72 -101l158 -14l158 29l72 115q33 63 86 86l172 -15l129 15q22 -85 58 -158q55 -38 115 -58l158 29l115 72q-9 72 -43 129l-302 790l-29 144q-34 70 -72 115q-65 29 -129 43l-172 29q-122 -84 -158 -201q-37 -69 -58 -130q-29 -70 -43 -144l-57 -114l-100 -273 l-15 -144q-79 -130 -115 -244zM175 166v100h14v-28zM276 712q50 -54 72 -115q-59 48 -72 115zM333 770l15 28l14 -28h-29zM362 842q30 107 71 186l29 -43l-57 -158zM379 1779q-6 -86 22 -133l5 -24l102 -117q62 -62 117 -103l22 -9l33 13l68 73q-11 73 -37 128l-82 152 l-13 32l-6 24q-33 38 -100 30t-131 -66zM405 439h28l-14 -43zM448 1057l14 86q46 -30 72 -72l-57 -29zM477 568l28 115q53 135 72 244q40 -108 58 -201l43 -172l-72 -15q-77 8 -129 29zM491 1229q31 -7 43 -28zM621 1028q30 -25 43 -58q-37 22 -43 58zM693 927l28 72 q-1 -38 -28 -72zM693 1100l14 29l29 -29l-29 -86zM721 396q19 54 57 86q51 -44 87 -86q-5 -50 -29 -86l-58 86h-57zM821 669l87 -115q-71 48 -87 115zM908 367l29 58l14 -58h-43zM922 252q31 56 43 115l44 -29l-15 -115z" />
<glyph unicode="&#xe1;" horiz-adv-x="1130" d="M-72 123l72 -101l158 -14l158 29l72 115q33 63 86 86l172 -15l129 15q22 -85 58 -158q55 -38 115 -58l158 29l115 72q-9 72 -43 129l-302 790l-29 144q-34 70 -72 115q-65 29 -129 43l-172 29q-122 -84 -158 -201q-37 -69 -58 -130q-29 -70 -43 -144l-57 -114l-100 -273 l-15 -144q-79 -130 -115 -244zM172 166v100h14v-28zM273 712q50 -54 72 -115q-59 48 -72 115zM330 770l15 28l14 -28h-29zM359 842q30 107 71 186l29 -43l-57 -158zM402 439h28l-14 -43zM445 1057l14 86q47 -30 72 -72l-57 -29zM453 1484l68 -73l33 -13l136 86 q55 41 117 103l35 47q28 47 22 133q-110 79 -156 80q-48 2 -83 -35l-6 -24l-13 -32l-116 -144q-26 -55 -37 -128zM474 568l28 115q53 135 72 244q40 -108 58 -201l43 -172l-72 -15q-77 8 -129 29zM488 1229q31 -7 43 -28zM618 1028q30 -25 43 -58q-37 22 -43 58zM690 927 l28 72q-1 -38 -28 -72zM690 1100l14 29l29 -29l-29 -86zM718 396q19 54 57 86q51 -44 87 -86q-5 -50 -29 -86l-58 86h-57zM818 669l87 -115q-71 48 -87 115zM905 367l29 58l14 -58h-43zM919 252q31 56 43 115l44 -29l-15 -115z" />
<glyph unicode="&#xe2;" horiz-adv-x="1130" d="M-72 123l72 -101l158 -14l158 29l72 115q33 63 86 86l172 -15l129 15q22 -85 58 -158q55 -38 115 -58l158 29l115 72q-9 72 -43 129l-302 790l-29 144q-34 70 -72 115q-65 29 -129 43l-172 29q-122 -84 -158 -201q-37 -69 -58 -130q-29 -70 -43 -144l-57 -114l-100 -273 l-15 -144q-79 -130 -115 -244zM172 166v100h14v-28zM273 712q50 -54 72 -115q-59 48 -72 115zM323 1451l2 -24l27 -22l97 -25q57 42 95 92l44 140q21 -66 28 -97l83 -122l33 -23l105 65l3 143l-66 140l-36 48v34l-41 54q-46 -10 -128 -9l-57 6q-52 -41 -80 -87l-19 -16 l-55 -145q-25 -84 -35 -152zM330 770l15 28l14 -28h-29zM359 842q30 107 71 186l29 -43l-57 -158zM402 439h28l-14 -43zM445 1057l14 86q47 -30 72 -72l-57 -29zM474 568l28 115q53 135 72 244q40 -108 58 -201l43 -172l-72 -15q-77 8 -129 29zM488 1229q31 -7 43 -28z M618 1028q30 -25 43 -58q-37 22 -43 58zM690 927l28 72q-1 -38 -28 -72zM690 1100l14 29l29 -29l-29 -86zM718 396q19 54 57 86q51 -44 87 -86q-5 -50 -29 -86l-58 86h-57zM818 669l87 -115q-71 48 -87 115zM905 367l29 58l14 -58h-43zM919 252q31 56 43 115l44 -29 l-15 -115z" />
<glyph unicode="&#xe3;" horiz-adv-x="1130" d="M-72 123l72 -101l158 -14l158 29l72 115q33 63 86 86l172 -15l129 15q22 -85 58 -158q55 -38 115 -58l158 29l115 72q-9 72 -43 129l-302 790l-29 144q-34 70 -72 115q-65 29 -129 43l-172 29q-122 -84 -158 -201q-37 -69 -58 -130q-29 -70 -43 -144l-57 -114l-100 -273 l-15 -144q-79 -130 -115 -244zM172 166v100h14v-28zM199 1597l3 -104l105 -48l33 17l83 89q8 27 28 71v-1l44 -101q35 -35 95 -68l5 1q1 -1 5 -3l28 18q76 1 128 -7l42 39v25l35 35l95 90l-3 104l-105 48l-33 -17l-83 -89q-7 -23 -28 -70l-44 101q-35 35 -95 68l-5 -1 q-1 1 -5 3l-57 -5q-81 -1 -162 20l-41 -39l-2 -25v-48zM273 712q50 -54 72 -115q-59 48 -72 115zM330 770l15 28l14 -28h-29zM359 842q30 107 71 186l29 -43l-57 -158zM402 439h28l-14 -43zM445 1057l14 86q47 -30 72 -72l-57 -29zM474 568l28 115q53 135 72 244 q40 -108 58 -201l43 -172l-72 -15q-77 8 -129 29zM488 1229q31 -7 43 -28zM618 1028q30 -25 43 -58q-37 22 -43 58zM690 927l28 72q-1 -38 -28 -72zM690 1100l14 29l29 -29l-29 -86zM718 396q19 54 57 86q51 -44 87 -86q-5 -50 -29 -86l-58 86h-57zM818 669l87 -115 q-71 48 -87 115zM905 367l29 58l14 -58h-43zM919 252q31 56 43 115l44 -29l-15 -115z" />
<glyph unicode="&#xe4;" horiz-adv-x="1130" d="M-79 141q41 -62 86 -100l157 -29l143 43l72 115q38 63 100 85h187l29 -13l56 28l29 -15q3 -75 34 -150q48 -51 100 -71l43 -14v14h129l114 71l24 50l-29 100l-56 130q-34 73 -44 143l-72 114l-42 144l-58 114l-71 258q-26 74 -57 129l-115 71q-84 25 -172 29l-129 -43 q-47 -62 -72 -129l-56 -114l-129 -415l-72 -130l-15 -158zM10 1338l27 -114q37 -33 87 -44l115 9q16 67 17 113v27l9 62l-9 26q-45 39 -97 52l-87 -52q-43 -37 -62 -79zM122 213l28 42q25 -9 29 -28zM265 671l57 -43q-38 12 -57 43zM279 814q72 -40 115 -100 q-78 34 -115 100zM379 1130l72 -58q-49 19 -72 58zM423 485q24 -16 28 -43q-25 16 -28 43zM436 929l29 114q29 -56 29 -114h-58zM494 570l14 101q38 121 43 229q53 -87 86 -172l29 -129q-13 -30 -43 -43zM494 1201l57 14l28 -43l-28 -28q-41 26 -57 57zM666 1130h85l-56 -29 q-26 9 -29 29zM737 442q62 -65 86 -144zM795 528v71h57zM795 843q33 -14 43 -43q-30 18 -43 43zM863 1344l18 -123q39 -36 87 -53l88 53q39 29 62 70l-18 123q-38 36 -88 53l-114 -18q-24 -59 -35 -105zM866 742l14 44h15v-44h-29zM880 642q26 -9 29 -28q-25 11 -29 28z M938 270q25 -10 29 -28q-25 9 -29 28zM967 370q25 -9 28 -28q-23 14 -28 28z" />
<glyph unicode="&#xe5;" />
<glyph unicode="&#xe6;" horiz-adv-x="1821" />
<glyph unicode="&#xe7;" horiz-adv-x="1301" d="M91 609l14 57l-14 142l42 184l72 156l268 184l184 42l198 -28l156 -71l127 -113l85 -141l-99 -128q-76 -34 -170 -57q-57 47 -113 113q-73 31 -170 57l-142 -85q-36 -76 -56 -170q1 -87 28 -198q23 -66 71 -141q72 -37 156 -43q70 26 156 71q37 61 113 113l141 -85 q51 -53 71 -142l-99 -127q-57 -50 -113 -114q-77 -32 -170 -56l-67 -4l36 -51q31 -50 50 -102l11 -15l11 -87l-5 -31q-31 -53 -61 -87q-44 -41 -90 -55l-105 -8l-73 71l-50 103q-8 30 -11 54l45 40l50 7l44 -31q28 -53 73 -70l27 31l-22 63q-33 52 -61 86l-31 76l-167 38 q-69 41 -142 100l-113 113l-71 155zM247 751q14 -61 56 -113q-6 60 -56 113zM289 609l14 -28v28h-14zM303 822q39 24 57 71q-36 -24 -57 -71zM345 1006h43v15l43 112h-57zM374 383q28 -121 155 -127zM388 977l14 -28v28h-14zM586 1162l57 -29l170 43l-43 42zM614 142l29 57 v28h-14zM756 227q10 -30 42 -42q-12 29 -42 42zM884 1063l70 14l28 56h-85zM1011 341l14 -43l14 43h-28z" />
<glyph unicode="&#xe8;" horiz-adv-x="1216" d="M86 671l14 -58v-508q78 -63 160 -102q75 35 145 44l131 -14l44 28l492 -14l59 72v131q-2 102 -59 159h-43l-14 15l-29 -15h-146q-127 -1 -232 -28q-95 28 -160 87q41 92 117 116l232 -15l203 15q51 107 58 203q-33 96 -116 116l-159 -14l-59 14l-217 -29l-43 116l57 43 l450 -14q87 51 101 131q-12 110 -43 203l-43 29l-146 -29l-188 15l-232 -15l-232 29q-54 -74 -73 -145v-87l-15 -29l15 -116l-29 -44l29 -145zM231 613q44 -34 58 -88q-45 40 -58 88zM231 874l15 29q26 -11 29 -29l-15 -101l-14 28zM246 424q31 -7 43 -29zM246 1063l29 -44 q-23 15 -29 44zM260 1150h15v-29zM318 352q75 -63 102 -146q-101 44 -102 146zM362 773l29 -44q-23 15 -29 44zM396 1784q-6 -86 22 -133l5 -24l102 -117q62 -62 117 -103l22 -9l33 13l68 73q-11 73 -37 128l-82 152l-13 32l-6 24q-33 38 -100 30t-131 -66zM420 685l44 59 l43 -44zM652 221l15 72q28 -28 29 -58z" />
<glyph unicode="&#xe9;" horiz-adv-x="1216" d="M86 671l14 -58v-508q78 -63 160 -102q75 35 145 44l131 -14l44 28l492 -14l59 72v131q-2 102 -59 159h-43l-14 15l-29 -15h-146q-127 -1 -232 -28q-95 28 -160 87q41 92 117 116l232 -15l203 15q51 107 58 203q-33 96 -116 116l-159 -14l-59 14l-217 -29l-43 116l57 43 l450 -14q87 51 101 131q-12 110 -43 203l-43 29l-146 -29l-188 15l-232 -15l-232 29q-54 -74 -73 -145v-87l-15 -29l15 -116l-29 -44l29 -145zM231 613q44 -34 58 -88q-45 40 -58 88zM231 874l15 29q26 -11 29 -29l-15 -101l-14 28zM246 424q31 -7 43 -29zM246 1063l29 -44 q-23 15 -29 44zM260 1150h15v-29zM318 352q75 -63 102 -146q-101 44 -102 146zM362 773l29 -44q-23 15 -29 44zM420 685l44 59l43 -44zM462 1480l68 -73l33 -13l136 86q55 41 117 103l35 47q28 47 22 133q-110 79 -156 80q-48 2 -83 -35l-6 -24l-13 -32l-116 -144 q-26 -55 -37 -128zM652 221l15 72q28 -28 29 -58z" />
<glyph unicode="&#xea;" horiz-adv-x="1216" d="M86 671l14 -58v-508q78 -63 160 -102q75 35 145 44l131 -14l44 28l492 -14l59 72v131q-2 102 -59 159h-43l-14 15l-29 -15h-146q-127 -1 -232 -28q-95 28 -160 87q41 92 117 116l232 -15l203 15q51 107 58 203q-33 96 -116 116l-159 -14l-59 14l-217 -29l-43 116l57 43 l450 -14q87 51 101 131q-12 110 -43 203l-43 29l-146 -29l-188 15l-232 -15l-232 29q-54 -74 -73 -145v-87l-15 -29l15 -116l-29 -44l29 -145zM231 613q44 -34 58 -88q-45 40 -58 88zM231 874l15 29q26 -11 29 -29l-15 -101l-14 28zM246 424q31 -7 43 -29zM246 1063l29 -44 q-23 15 -29 44zM260 1150h15v-29zM318 352q75 -63 102 -146q-101 44 -102 146zM340 1459l2 -24l27 -22l97 -25q57 42 95 92l44 140q21 -66 28 -97l83 -122l33 -23l105 65l3 143l-66 140l-36 48v34l-41 54q-46 -10 -128 -9l-57 6q-52 -41 -80 -87l-19 -16l-55 -145 q-25 -84 -35 -152zM362 773l29 -44q-23 15 -29 44zM420 685l44 59l43 -44zM652 221l15 72q28 -28 29 -58z" />
<glyph unicode="&#xeb;" horiz-adv-x="1216" d="M86 671l14 -58v-508q78 -63 160 -102q75 35 145 44l131 -14l44 28l492 -14l59 72v131q-2 102 -59 159h-43l-14 15l-29 -15h-146q-127 -1 -232 -28q-95 28 -160 87q41 92 117 116l232 -15l203 15q51 107 58 203q-33 96 -116 116l-159 -14l-59 14l-217 -29l-43 116l57 43 l450 -14q87 51 101 131q-12 110 -43 203l-43 29l-146 -29l-188 15l-232 -15l-232 29q-54 -74 -73 -145v-87l-15 -29l15 -116l-29 -44l29 -145zM231 613q44 -34 58 -88q-45 40 -58 88zM231 874l15 29q26 -11 29 -29l-15 -101l-14 28zM246 424q31 -7 43 -29zM246 1063l29 -44 q-23 15 -29 44zM260 1150h15v-29zM286 1603l27 -114q37 -33 87 -44l115 9q16 67 17 113v27l9 62l-9 26q-45 39 -97 52l-87 -52q-43 -37 -62 -79zM318 352q75 -63 102 -146q-101 44 -102 146zM362 773l29 -44q-23 15 -29 44zM420 685l44 59l43 -44zM636 1610l18 -123 q39 -36 87 -53l88 53q39 29 62 70l-18 123q-38 36 -88 53l-114 -18q-24 -59 -35 -105zM652 221l15 72q28 -28 29 -58z" />
<glyph unicode="&#xec;" horiz-adv-x="577" d="M35 1788q-6 -86 22 -133l5 -24l102 -117q62 -62 117 -103l22 -9l33 13l68 73q-11 73 -37 128l-82 152l-13 32l-6 24q-33 38 -100 30t-131 -66zM91 249h14v-158q92 -47 187 -71q105 20 186 57l15 57l-15 158v43l15 29l-15 114v58l-14 42l14 130l15 14h-15v186l15 43 l-29 115l14 43l15 201l-187 72l-186 -58l-29 -43l14 -158q0 -128 15 -229l-15 -215l15 -201l-15 -172zM220 894l115 -43q-74 1 -115 43zM263 249l14 86q27 -72 29 -144l-29 29zM263 536v100l29 -29zM292 694h14v-44zM292 1210l29 -44q-25 17 -29 44z" />
<glyph unicode="&#xed;" horiz-adv-x="577" d="M91 249h14v-158q92 -47 187 -71q105 20 186 57l15 57l-15 158v43l15 29l-15 114v58l-14 42l14 130l15 14h-15v186l15 43l-29 115l14 43l15 201l-187 72l-186 -58l-29 -43l14 -158q0 -128 15 -229l-15 -215l15 -201l-15 -172zM178 1484l68 -73l33 -13l136 86 q55 41 117 103l35 47q28 47 22 133q-110 79 -156 80q-48 2 -83 -35l-6 -24l-13 -32l-116 -144q-26 -55 -37 -128zM220 894l115 -43q-74 1 -115 43zM263 249l14 86q27 -72 29 -144l-29 29zM263 536v100l29 -29zM292 694h14v-44zM292 1210l29 -44q-25 17 -29 44z" />
<glyph unicode="&#xee;" horiz-adv-x="577" d="M87 1451l2 -24l21 -22l78 -25q43 40 76 92l35 140q17 -64 22 -97l67 -122l26 -23l84 65l3 143l-53 140l-29 48v34l-33 54q-38 -10 -102 -9l-46 6q-42 -42 -64 -87l-15 -16l-44 -145q-19 -76 -28 -152zM91 249h14v-158q92 -47 187 -71q105 20 186 57l15 57l-15 158v43 l15 29l-15 114v58l-14 42l14 130l15 14h-15v186l15 43l-29 115l14 43l15 201l-187 72l-186 -58l-29 -43l14 -158q0 -128 15 -229l-15 -215l15 -201l-15 -172zM220 894l115 -43q-74 1 -115 43zM263 249l14 86q27 -72 29 -144l-29 29zM263 536v100l29 -29zM292 694h14v-44z M292 1210l29 -44q-25 17 -29 44z" />
<glyph unicode="&#xef;" horiz-adv-x="577" d="M-12 1611l27 -114q37 -33 87 -44l115 9q16 67 17 113v27l9 62l-9 26q-45 39 -97 52l-87 -52q-43 -37 -62 -79zM91 249h14v-158q92 -47 187 -71q105 20 186 57l15 57l-15 158v43l15 29l-15 114v58l-14 42l14 130l15 14h-15v186l15 43l-29 115l14 43l15 201l-187 72 l-186 -58l-29 -43l14 -158q0 -128 15 -229l-15 -215l15 -201l-15 -172zM220 894l115 -43q-74 1 -115 43zM263 249l14 86q27 -72 29 -144l-29 29zM263 536v100l29 -29zM292 694h14v-44zM292 1210l29 -44q-25 17 -29 44zM338 1618l18 -123q39 -36 87 -53l88 53q39 29 62 70 l-18 123q-38 36 -88 53l-114 -18q-24 -59 -35 -105z" />
<glyph unicode="&#xf0;" />
<glyph unicode="&#xf1;" horiz-adv-x="1334" d="M74 1272q23 -118 29 -217v-361l14 -28l-14 -116l14 -275q-5 -72 -14 -115l43 -101l58 -29l44 -14l115 14q105 38 144 130l-43 477l-72 187q77 -50 115 -115l274 -549q74 -84 174 -101l57 -14l160 14l72 72l-15 130l15 866l-15 44l15 101q-63 106 -174 115l-202 -57 q-33 -46 -43 -87l43 -390l58 -173q-99 53 -130 144l-289 534l-245 15q-123 -15 -188 -101zM248 983v43l28 101l72 -115zM262 275l43 73q31 -34 43 -73l-43 -29zM276 449l15 72l29 -15l-15 -72zM320 1157l72 43q23 -13 28 -73zM325 1594l3 -104l105 -48l33 17l83 89 q8 27 28 71v-1l44 -101q35 -35 95 -68l5 1q1 -1 5 -3l28 18q76 1 128 -7l42 39v25l35 35l95 90l-3 104l-105 48l-33 -17l-83 -89q-7 -23 -28 -70l-44 101q-35 35 -95 68l-5 -1q-1 1 -5 3l-57 -5q-81 -1 -162 20l-41 -39l-2 -25v-48zM348 998l44 -29q-30 7 -44 29zM435 1026 q24 -14 29 -43q-27 13 -29 43zM464 926h14v-29zM464 1084q25 -10 28 -29q-23 10 -28 29zM522 926q55 -54 72 -116q-49 54 -72 116zM781 492l15 29h29l-14 -43zM825 391l58 58l29 -130q-44 43 -87 72zM926 535l43 87q26 -9 29 -28l-29 -88zM984 246l28 88l15 129l43 -29 l-29 -86q-2 -78 -29 -130q-26 7 -28 28zM1027 911h14v-43zM1056 1070l28 87q0 -56 -28 -87zM1070 838h30l-16 -57z" />
<glyph unicode="&#xf2;" horiz-adv-x="1419" d="M69 709l14 -140q24 -130 69 -235q77 -115 153 -181q110 -82 208 -124l305 -14q138 48 236 97q99 87 153 181q90 106 110 221l28 291q-51 146 -70 264l-166 167q-119 68 -235 97q-160 33 -306 41q-125 -57 -208 -125q-100 -87 -166 -166q-66 -121 -97 -236zM222 667 q50 -24 69 -70q-56 20 -69 70zM263 737q13 22 28 27l-14 56q25 -10 28 -28l-14 -83q-26 8 -28 28zM305 431q36 28 55 55q31 -14 42 -41l-70 -56zM305 930l14 42h13v-27zM402 972l13 56q24 -15 28 -28zM402 1125l28 -42l-15 -28zM443 681l70 208q84 79 166 124 q106 -34 195 -83q38 -111 55 -221l14 -42l-42 -181q-90 -55 -180 -97q-115 32 -194 84zM468 1784q-6 -86 22 -133l5 -24l102 -117q62 -62 117 -103l22 -9l33 13l68 73q-11 73 -37 128l-82 152l-13 32l-6 24q-33 38 -100 30t-131 -66zM485 223l55 70q36 -46 42 -98zM540 1180 q79 -24 83 -97q-56 48 -83 97zM651 1236l14 41h14v-41h-28zM776 306q44 -23 56 -69zM832 1194h14v-28zM846 251l28 -42q-24 16 -28 42zM957 1028l42 -28q-32 2 -42 28zM971 278q23 75 83 125q-8 -83 -83 -125zM984 1041l28 42h14v-42h-42zM1040 833l55 84l42 -42 q-25 -52 -55 -83q-31 12 -42 41zM1040 1138h14v-41zM1151 653q24 -9 28 -28q-24 10 -28 28zM1165 528l42 -27q-29 5 -42 27z" />
<glyph unicode="&#xf3;" horiz-adv-x="1419" d="M69 709l14 -140q24 -130 69 -235q77 -115 153 -181q110 -82 208 -124l305 -14q138 48 236 97q99 87 153 181q90 106 110 221l28 291q-51 146 -70 264l-166 167q-119 68 -235 97q-160 33 -306 41q-125 -57 -208 -125q-100 -87 -166 -166q-66 -121 -97 -236zM222 667 q50 -24 69 -70q-56 20 -69 70zM263 737q13 22 28 27l-14 56q25 -10 28 -28l-14 -83q-26 8 -28 28zM305 431q36 28 55 55q31 -14 42 -41l-70 -56zM305 930l14 42h13v-27zM402 972l13 56q24 -15 28 -28zM402 1125l28 -42l-15 -28zM443 681l70 208q84 79 166 124 q106 -34 195 -83q38 -111 55 -221l14 -42l-42 -181q-90 -55 -180 -97q-115 32 -194 84zM485 223l55 70q36 -46 42 -98zM540 1180q79 -24 83 -97q-56 48 -83 97zM597 1484l68 -73l33 -13l136 86q55 41 117 103l35 47q28 47 22 133q-110 79 -156 80q-48 2 -83 -35l-6 -24 l-13 -32l-116 -144q-26 -55 -37 -128zM651 1236l14 41h14v-41h-28zM776 306q44 -23 56 -69zM832 1194h14v-28zM846 251l28 -42q-24 16 -28 42zM957 1028l42 -28q-32 2 -42 28zM971 278q23 75 83 125q-8 -83 -83 -125zM984 1041l28 42h14v-42h-42zM1040 833l55 84l42 -42 q-25 -52 -55 -83q-31 12 -42 41zM1040 1138h14v-41zM1151 653q24 -9 28 -28q-24 10 -28 28zM1165 528l42 -27q-29 5 -42 27z" />
<glyph unicode="&#xf4;" horiz-adv-x="1419" d="M69 709l14 -140q24 -130 69 -235q77 -115 153 -181q110 -82 208 -124l305 -14q138 48 236 97q99 87 153 181q90 106 110 221l28 291q-51 146 -70 264l-166 167q-119 68 -235 97q-160 33 -306 41q-125 -57 -208 -125q-100 -87 -166 -166q-66 -121 -97 -236zM222 667 q50 -24 69 -70q-56 20 -69 70zM263 737q13 22 28 27l-14 56q25 -10 28 -28l-14 -83q-26 8 -28 28zM305 431q36 28 55 55q31 -14 42 -41l-70 -56zM305 930l14 42h13v-27zM402 972l13 56q24 -15 28 -28zM402 1125l28 -42l-15 -28zM441 1451l2 -24l27 -22l97 -25q57 42 95 92 l44 140q21 -66 28 -97l83 -122l33 -23l105 65l3 143l-66 140l-36 48v34l-41 54q-46 -10 -128 -9l-57 6q-52 -41 -80 -87l-19 -16l-55 -145q-25 -84 -35 -152zM443 681l70 208q84 79 166 124q106 -34 195 -83q38 -111 55 -221l14 -42l-42 -181q-90 -55 -180 -97 q-115 32 -194 84zM485 223l55 70q36 -46 42 -98zM540 1180q79 -24 83 -97q-56 48 -83 97zM651 1236l14 41h14v-41h-28zM776 306q44 -23 56 -69zM832 1194h14v-28zM846 251l28 -42q-24 16 -28 42zM957 1028l42 -28q-32 2 -42 28zM971 278q23 75 83 125q-8 -83 -83 -125z M984 1041l28 42h14v-42h-42zM1040 833l55 84l42 -42q-25 -52 -55 -83q-31 12 -42 41zM1040 1138h14v-41zM1151 653q24 -9 28 -28q-24 10 -28 28zM1165 528l42 -27q-29 5 -42 27z" />
<glyph unicode="&#xf5;" horiz-adv-x="1419" d="M69 709l14 -140q24 -130 69 -235q77 -115 153 -181q110 -82 208 -124l305 -14q138 48 236 97q99 87 153 181q90 106 110 221l28 291q-51 146 -70 264l-166 167q-119 68 -235 97q-160 33 -306 41q-125 -57 -208 -125q-100 -87 -166 -166q-66 -121 -97 -236zM222 667 q50 -24 69 -70q-56 20 -69 70zM263 737q13 22 28 27l-14 56q25 -10 28 -28l-14 -83q-26 8 -28 28zM305 431q36 28 55 55q31 -14 42 -41l-70 -56zM305 930l14 42h13v-27zM346 1606l3 -104l105 -48l33 17l83 89q8 27 28 71v-1l44 -101q35 -35 95 -68l5 1q1 -1 5 -3l28 18 q76 1 128 -7l42 39v25l35 35l95 90l-3 104l-105 48l-33 -17l-83 -89q-7 -23 -28 -70l-44 101q-35 35 -95 68l-5 -1q-1 1 -5 3l-57 -5q-81 -1 -162 20l-41 -39l-2 -25v-48zM402 972l13 56q24 -15 28 -28zM402 1125l28 -42l-15 -28zM443 681l70 208q84 79 166 124 q106 -34 195 -83q38 -111 55 -221l14 -42l-42 -181q-90 -55 -180 -97q-115 32 -194 84zM485 223l55 70q36 -46 42 -98zM540 1180q79 -24 83 -97q-56 48 -83 97zM651 1236l14 41h14v-41h-28zM776 306q44 -23 56 -69zM832 1194h14v-28zM846 251l28 -42q-24 16 -28 42z M957 1028l42 -28q-32 2 -42 28zM971 278q23 75 83 125q-8 -83 -83 -125zM984 1041l28 42h14v-42h-42zM1040 833l55 84l42 -42q-25 -52 -55 -83q-31 12 -42 41zM1040 1138h14v-41zM1151 653q24 -9 28 -28q-24 10 -28 28zM1165 528l42 -27q-29 5 -42 27z" />
<glyph unicode="&#xf6;" horiz-adv-x="1419" d="M21 1352l27 -114q37 -33 87 -44l115 9q16 67 17 113v27l9 62l-9 26q-45 39 -97 52l-87 -52q-43 -37 -62 -79zM91 552l83 -264q98 -92 181 -153q121 -77 237 -111l305 14q129 68 209 125l167 181q52 141 70 278l-14 56q6 82 28 152l-84 237q-77 119 -167 181 q-124 72 -236 97l-97 28h-223l-209 -125l-167 -181q-58 -136 -69 -250zM230 956h42l-14 -42q-22 15 -28 42zM258 580l14 42h13v-28zM258 775l27 70q36 -37 43 -84l-28 -14zM300 399l13 56l28 -14zM383 538h14v-28zM383 1025h56l-28 -55q-22 23 -28 55zM425 1150l56 -28 q-32 4 -56 28zM466 706l28 180l181 139q119 -33 209 -83q62 -92 69 -181q-10 -140 -41 -236q-69 -91 -167 -126q-126 20 -209 98q-62 107 -70 209zM466 1053q25 -9 28 -28q-25 9 -28 28zM592 191l28 69l41 -55l-28 -28zM758 149v42q22 43 56 69q38 -26 42 -69l-55 -28z M939 1164l139 -125q-112 25 -139 125zM1037 497q23 -14 28 -28q-25 9 -28 28zM1065 580l69 56h55l-83 -56l14 -111q-38 57 -55 111zM1093 775q24 -9 27 -28q-23 11 -27 28zM1148 817l41 -15l-13 -13q-24 9 -28 28zM1172 1354l18 -123q39 -36 87 -53l88 53q39 29 62 70 l-18 123q-38 36 -88 53l-114 -18q-24 -59 -35 -105z" />
<glyph unicode="&#xf7;" horiz-adv-x="1124" />
<glyph unicode="&#xf8;" horiz-adv-x="1251" />
<glyph unicode="&#xf9;" horiz-adv-x="1271" d="M74 553q23 -116 29 -216l115 -130q63 -67 130 -115l172 -58l58 15l144 -29l187 58l144 100l101 130l29 216l-15 202l15 187q5 106 29 187l-29 173q-35 107 -130 129l-187 -43q-54 -66 -72 -144l-14 -14l14 -43l29 -576l-58 -173l-57 -43l-130 14q-59 66 -101 130l-14 201 l14 418l29 57l-29 144l-29 44l-129 -15l-43 15l-144 -29q-42 -85 -44 -173l15 -158l-15 -58l15 -158l-15 -58l15 -86zM218 438l29 100l29 -115zM261 1042q53 -16 72 -57q-49 19 -72 57zM397 1779q-6 -86 22 -133l5 -24l102 -117q62 -62 117 -103l22 -9l33 13l68 73 q-11 73 -37 128l-82 152l-13 32l-6 24q-33 38 -100 30t-131 -66zM477 265l58 -29q-35 5 -58 29zM823 265q32 -13 43 -43q-33 13 -43 43zM924 481l14 29h14v-29h-28zM967 1230l57 -29q-34 3 -57 29zM981 625q39 -32 43 -72q-36 34 -43 72zM981 826l87 -43q-49 14 -87 43z M981 898l15 44h28l-14 -44h-29zM981 1086l15 43h14v-43h-29z" />
<glyph unicode="&#xfa;" horiz-adv-x="1271" d="M74 553q23 -116 29 -216l115 -130q63 -67 130 -115l172 -58l58 15l144 -29l187 58l144 100l101 130l29 216l-15 202l15 187q5 106 29 187l-29 173q-35 107 -130 129l-187 -43q-54 -66 -72 -144l-14 -14l14 -43l29 -576l-58 -173l-57 -43l-130 14q-59 66 -101 130l-14 201 l14 418l29 57l-29 144l-29 44l-129 -15l-43 15l-144 -29q-42 -85 -44 -173l15 -158l-15 -58l15 -158l-15 -58l15 -86zM218 438l29 100l29 -115zM261 1042q53 -16 72 -57q-49 19 -72 57zM477 265l58 -29q-35 5 -58 29zM542 1480l68 -73l33 -13l136 86q55 41 117 103l35 47 q28 47 22 133q-110 79 -156 80q-48 2 -83 -35l-6 -24l-13 -32l-116 -144q-26 -55 -37 -128zM823 265q32 -13 43 -43q-33 13 -43 43zM924 481l14 29h14v-29h-28zM967 1230l57 -29q-34 3 -57 29zM981 625q39 -32 43 -72q-36 34 -43 72zM981 826l87 -43q-49 14 -87 43zM981 898 l15 44h28l-14 -44h-29zM981 1086l15 43h14v-43h-29z" />
<glyph unicode="&#xfb;" horiz-adv-x="1271" d="M74 553q23 -116 29 -216l115 -130q63 -67 130 -115l172 -58l58 15l144 -29l187 58l144 100l101 130l29 216l-15 202l15 187q5 106 29 187l-29 173q-35 107 -130 129l-187 -43q-54 -66 -72 -144l-14 -14l14 -43l29 -576l-58 -173l-57 -43l-130 14q-59 66 -101 130l-14 201 l14 418l29 57l-29 144l-29 44l-129 -15l-43 15l-144 -29q-42 -85 -44 -173l15 -158l-15 -58l15 -158l-15 -58l15 -86zM218 438l29 100l29 -115zM261 1042q53 -16 72 -57q-49 19 -72 57zM397 1447l2 -24l27 -22l97 -25q57 42 95 92l44 140q21 -66 28 -97l83 -122l33 -23 l105 65l3 143l-66 140l-36 48v34l-41 54q-46 -10 -128 -9l-57 6q-52 -41 -80 -87l-19 -16l-55 -145q-25 -84 -35 -152zM477 265l58 -29q-35 5 -58 29zM823 265q32 -13 43 -43q-33 13 -43 43zM924 481l14 29h14v-29h-28zM967 1230l57 -29q-34 3 -57 29zM981 625 q39 -32 43 -72q-36 34 -43 72zM981 826l87 -43q-49 14 -87 43zM981 898l15 44h28l-14 -44h-29zM981 1086l15 43h14v-43h-29z" />
<glyph unicode="&#xfc;" horiz-adv-x="1271" d="M74 553q23 -116 29 -216l115 -130q63 -67 130 -115l172 -58l58 15l144 -29l187 58l144 100l101 130l29 216l-15 202l15 187q5 106 29 187l-29 173q-35 107 -130 129l-187 -43q-54 -66 -72 -144l-14 -14l14 -43l29 -576l-58 -173l-57 -43l-130 14q-59 66 -101 130l-14 201 l14 418l29 57l-29 144l-29 44l-129 -15l-43 15l-144 -29q-42 -85 -44 -173l15 -158l-15 -58l15 -158l-15 -58l15 -86zM218 438l29 100l29 -115zM261 1042q53 -16 72 -57q-49 19 -72 57zM477 265l58 -29q-35 5 -58 29zM544 989l21 -89q29 -26 68 -34l90 7q12 55 13 88v21 l7 48l-7 21q-36 30 -76 40l-68 -40q-35 -31 -48 -62zM557 1287l14 -96q29 -27 68 -42l68 42q31 22 49 54l-14 96q-31 29 -69 41l-89 -14q-19 -49 -27 -81zM823 265q32 -13 43 -43q-33 13 -43 43zM924 481l14 29h14v-29h-28zM967 1230l57 -29q-34 3 -57 29zM981 625 q39 -32 43 -72q-36 34 -43 72zM981 826l87 -43q-49 14 -87 43zM981 898l15 44h28l-14 -44h-29zM981 1086l15 43h14v-43h-29z" />
<glyph unicode="&#xfd;" horiz-adv-x="1024" />
<glyph unicode="&#xfe;" />
<glyph unicode="&#xff;" horiz-adv-x="1024" />
<glyph unicode="&#x152;" horiz-adv-x="2048" />
<glyph unicode="&#x153;" horiz-adv-x="1933" />
<glyph unicode="&#x178;" horiz-adv-x="1366" />
<glyph unicode="&#x2c6;" horiz-adv-x="700" d="M85 1396l2 -24l27 -22l97 -25q57 42 95 92l44 140q21 -66 28 -97l83 -122l33 -23l105 65l3 143l-66 140l-36 48v34l-41 54q-46 -10 -128 -9l-57 6q-52 -41 -80 -87l-19 -16l-55 -145q-25 -84 -35 -152z" />
<glyph unicode="&#x2dc;" horiz-adv-x="700" d="M85 1534l3 -104l105 -48l33 17l83 89q8 27 28 71v-1l44 -101q35 -35 95 -68l5 1q1 -1 5 -3l28 18q76 1 128 -7l42 39v25l35 35l95 90l-3 104l-105 48l-33 -17l-83 -89q-7 -23 -28 -70l-44 101q-35 35 -95 68l-5 -1q-1 1 -5 3l-57 -5q-81 -1 -162 20l-41 -39l-2 -25v-48z " />
<glyph unicode="&#x2000;" horiz-adv-x="931" />
<glyph unicode="&#x2001;" horiz-adv-x="1863" />
<glyph unicode="&#x2002;" horiz-adv-x="931" />
<glyph unicode="&#x2003;" horiz-adv-x="1863" />
<glyph unicode="&#x2004;" horiz-adv-x="621" />
<glyph unicode="&#x2005;" horiz-adv-x="465" />
<glyph unicode="&#x2006;" horiz-adv-x="310" />
<glyph unicode="&#x2007;" horiz-adv-x="310" />
<glyph unicode="&#x2008;" horiz-adv-x="232" />
<glyph unicode="&#x2009;" horiz-adv-x="372" />
<glyph unicode="&#x200a;" horiz-adv-x="103" />
<glyph unicode="&#x2010;" horiz-adv-x="865" d="M94 794q4 -97 50 -164q136 -25 242 -26l89 13l89 -13l37 13q114 13 178 89q-5 117 -63 202l-102 13h-152v-13h-241q-92 -33 -127 -114z" />
<glyph unicode="&#x2011;" horiz-adv-x="865" d="M94 794q4 -97 50 -164q136 -25 242 -26l89 13l89 -13l37 13q114 13 178 89q-5 117 -63 202l-102 13h-152v-13h-241q-92 -33 -127 -114z" />
<glyph unicode="&#x2012;" horiz-adv-x="865" d="M94 794q4 -97 50 -164q136 -25 242 -26l89 13l89 -13l37 13q114 13 178 89q-5 117 -63 202l-102 13h-152v-13h-241q-92 -33 -127 -114z" />
<glyph unicode="&#x2013;" />
<glyph unicode="&#x2014;" horiz-adv-x="2048" />
<glyph unicode="&#x2018;" horiz-adv-x="391" d="M90 1184q6 -87 22 -154l11 -22l33 -11l100 11q39 63 55 121l-11 177l11 33l11 22q-3 47 -11 88l-166 22q-34 -57 -44 -110l-11 -22v-155z" />
<glyph unicode="&#x2019;" horiz-adv-x="391" d="M90 1184q6 -87 22 -154l11 -22l33 -11l100 11q39 63 55 121l-11 177l11 33l11 22q-3 47 -11 88l-166 22q-34 -57 -44 -110l-11 -22v-155z" />
<glyph unicode="&#x201a;" horiz-adv-x="455" />
<glyph unicode="&#x201c;" horiz-adv-x="700" d="M90 1184q6 -87 22 -154l11 -22l33 -11l100 11q39 63 55 121l-11 177l11 33l11 22q-3 47 -11 88l-166 22q-34 -57 -44 -110l-11 -22v-155zM366 1174l33 -144l22 -33l121 22q42 70 55 132l-10 155l21 33l12 33l-23 67q-76 27 -154 32q-47 -54 -66 -121q-2 -108 -11 -176z " />
<glyph unicode="&#x201d;" horiz-adv-x="700" d="M90 1184q6 -87 22 -154l11 -22l33 -11l100 11q39 63 55 121l-11 177l11 33l11 22q-3 47 -11 88l-166 22q-34 -57 -44 -110l-11 -22v-155zM366 1174l33 -144l22 -33l121 22q42 70 55 132l-10 155l21 33l12 33l-23 67q-76 27 -154 32q-47 -54 -66 -121q-2 -108 -11 -176z " />
<glyph unicode="&#x201e;" horiz-adv-x="682" />
<glyph unicode="&#x2022;" horiz-adv-x="717" />
<glyph unicode="&#x2026;" horiz-adv-x="2048" />
<glyph unicode="&#x202f;" horiz-adv-x="372" />
<glyph unicode="&#x2039;" horiz-adv-x="682" />
<glyph unicode="&#x203a;" horiz-adv-x="682" />
<glyph unicode="&#x205f;" horiz-adv-x="465" />
<glyph unicode="&#x20ac;" horiz-adv-x="1292" d="M-12 591q45 -17 109 -26l24 -168l196 -267l154 -70l140 -28l57 14l42 -14l154 14l140 84l127 112q54 75 84 140q-53 77 -112 127q-81 34 -155 41l-112 -112q-84 -44 -168 -56l-141 84l-28 84q115 1 277 11q57 25 63 66q-44 32 -158 45h-210v5l-13 42l2 14h1l110 -5l47 5 q141 6 221 36q-4 46 -79 81l-126 5h-148q38 55 84 102l154 70l126 -98q69 -55 141 -84q77 34 140 84q53 69 69 141l-112 125q-52 61 -112 112l-182 43q-96 22 -183 28l-168 -56l-140 -84l-112 -112l-70 -155l-14 -42l-14 -28l7 -57q-76 -13 -112 -40q6 -39 63 -66q9 0 26 -1 t26 -2l-4 -63h-33q-74 -34 -78 -81zM233 747l14 42h14v-42h-28zM261 705l56 -28q-31 4 -56 28zM275 565l14 56h14v-56h-28zM289 929l28 98q31 -7 42 -28q-17 -58 -42 -98q-28 6 -28 28zM317 509q54 -31 57 -84q-44 33 -57 84zM387 242q40 38 84 56q-35 -37 -84 -56z M555 1223l43 43q-3 -39 -43 -43zM570 1126l28 -43q-26 13 -28 43zM611 242v28l28 -14zM752 242l126 70q37 -19 42 -56q-68 -21 -112 -56q-37 14 -56 42zM794 1182h42l-14 -56q-23 23 -28 56zM878 1083l28 84l29 -41z" />
<glyph unicode="&#x2122;" horiz-adv-x="2048" />
<glyph unicode="&#xe000;" horiz-adv-x="1380" d="M0 0v1380h1380v-1380h-1380z" />
</font>
</defs>
</svg>
